Bold.ufo
<glyph name="exclam" format="2">
  <advance width="390"/>
  <unicode hex="0021"/>
  <outline>
    <contour>
      <point x="85" y="95" type="curve" smooth="yes"/>
      <point x="85" y="153"/>
      <point x="134" y="205"/>
      <point x="195" y="205" type="curve" smooth="yes"/>
      <point x="256" y="205"/>
      <point x="305" y="153"/>
      <point x="305" y="95" type="curve" smooth="yes"/>
      <point x="305" y="37"/>
      <point x="256" y="-15"/>
      <point x="195" y="-15" type="curve" smooth="yes"/>
      <point x="134" y="-15"/>
      <point x="85" y="37"/>
    </contour>
    <contour>
      <point x="160" y="245" type="line"/>
      <point x="160" y="260" type="line"/>
      <point x="230" y="260" type="line"/>
      <point x="230" y="245" type="line"/>
    </contour>
    <contour>
      <point x="80" y="685" type="line"/>
      <point x="80" y="700" type="line"/>
      <point x="310" y="700" type="line"/>
      <point x="310" y="685" type="line"/>
    </contour>
    <contour>
      <point x="100" y="700" type="line"/>
      <point x="290" y="700" type="line"/>
      <point x="220" y="245" type="line"/>
      <point x="170" y="245" type="line"/>
    </contour>
  </outline>
</glyph>
<glyph name="quotedbl" format="2">
  <advance width="525"/>
  <unicode hex="0022"/>
  <outline>
    <contour>
      <point x="280" y="735" type="line"/>
      <point x="280" y="750" type="line"/>
      <point x="475" y="750" type="line"/>
      <point x="475" y="735" type="line"/>
    </contour>
    <contour>
      <point x="300" y="750" type="line"/>
      <point x="455" y="750" type="line"/>
      <point x="435" y="460" type="line"/>
      <point x="320" y="460" type="line"/>
    </contour>
    <contour>
      <point x="50" y="735" type="line"/>
      <point x="50" y="750" type="line"/>
      <point x="245" y="750" type="line"/>
      <point x="245" y="735" type="line"/>
    </contour>
    <contour>
      <point x="70" y="750" type="line"/>
      <point x="225" y="750" type="line"/>
      <point x="205" y="460" type="line"/>
      <point x="90" y="460" type="line"/>
    </contour>
  </outline>
</glyph>
<glyph name="numbersign" format="2">
  <advance width="645"/>
  <unicode hex="0023"/>
  <outline>
    <contour>
      <point x="30" y="325" type="line"/>
      <point x="45" y="325" type="line"/>
      <point x="45" y="160" type="line"/>
      <point x="30" y="160" type="line"/>
    </contour>
    <contour>
      <point x="570" y="325" type="line"/>
      <point x="585" y="325" type="line"/>
      <point x="585" y="160" type="line"/>
      <point x="570" y="160" type="line"/>
    </contour>
    <contour>
      <point x="60" y="545" type="line"/>
      <point x="75" y="545" type="line"/>
      <point x="75" y="380" type="line"/>
      <point x="60" y="380" type="line"/>
    </contour>
    <contour>
      <point x="600" y="545" type="line"/>
      <point x="615" y="545" type="line"/>
      <point x="615" y="380" type="line"/>
      <point x="600" y="380" type="line"/>
    </contour>
    <contour>
      <point x="282" y="0" type="line"/>
      <point x="282" y="15" type="line"/>
      <point x="452" y="15" type="line"/>
      <point x="452" y="0" type="line"/>
    </contour>
    <contour>
      <point x="67" y="0" type="line"/>
      <point x="67" y="15" type="line"/>
      <point x="237" y="15" type="line"/>
      <point x="237" y="0" type="line"/>
    </contour>
    <contour>
      <point x="408" y="685" type="line"/>
      <point x="408" y="700" type="line"/>
      <point x="578" y="700" type="line"/>
      <point x="578" y="685" type="line"/>
    </contour>
    <contour>
      <point x="193" y="685" type="line"/>
      <point x="193" y="700" type="line"/>
      <point x="363" y="700" type="line"/>
      <point x="363" y="685" type="line"/>
    </contour>
    <contour>
      <point x="60" y="400" type="line"/>
      <point x="60" y="525" type="line"/>
      <point x="615" y="525" type="line"/>
      <point x="615" y="400" type="line"/>
    </contour>
    <contour>
      <point x="30" y="180" type="line"/>
      <point x="30" y="305" type="line"/>
      <point x="585" y="305" type="line"/>
      <point x="585" y="180" type="line"/>
    </contour>
    <contour>
      <point x="430" y="700" type="line"/>
      <point x="560" y="700" type="line"/>
      <point x="430" y="0" type="line"/>
      <point x="300" y="0" type="line"/>
    </contour>
    <contour>
      <point x="215" y="700" type="line"/>
      <point x="345" y="700" type="line"/>
      <point x="215" y="0" type="line"/>
      <point x="85" y="0" type="line"/>
    </contour>
  </outline>
</glyph>
<glyph name="dollar" format="2">
  <advance width="765"/>
  <unicode hex="0024"/>
  <outline>
    <contour>
      <point x="445" y="740" type="line"/>
      <point x="485" y="740" type="line"/>
      <point x="485" y="-80" type="line"/>
      <point x="445" y="-80" type="line"/>
    </contour>
    <contour>
      <point x="305" y="740" type="line"/>
      <point x="345" y="740" type="line"/>
      <point x="345" y="-80" type="line"/>
      <point x="305" y="-80" type="line"/>
    </contour>
    <contour>
      <point x="140" y="213" type="line"/>
      <point x="153" y="205" type="line"/>
      <point x="63" y="68" type="line"/>
      <point x="50" y="76" type="line"/>
    </contour>
    <contour>
      <point x="693" y="625" type="line"/>
      <point x="706" y="617" type="line"/>
      <point x="616" y="482" type="line"/>
      <point x="603" y="490" type="line"/>
    </contour>
    <contour>
      <point x="138" y="195" type="line"/>
      <point x="204" y="151"/>
      <point x="281" y="118"/>
      <point x="395" y="118" type="curve" smooth="yes"/>
      <point x="510" y="118"/>
      <point x="566" y="140"/>
      <point x="566" y="203" type="curve" smooth="yes"/>
      <point x="566" y="265"/>
      <point x="537.67" y="276.068"/>
      <point x="398" y="288" type="curve" smooth="yes"/>
      <point x="213.993" y="303.72"/>
      <point x="97" y="374"/>
      <point x="97" y="501" type="curve" smooth="yes"/>
      <point x="97" y="635"/>
      <point x="211" y="710"/>
      <point x="400" y="710" type="curve" smooth="yes"/>
      <point x="533" y="710"/>
      <point x="618" y="664"/>
      <point x="693" y="611" type="curve"/>
      <point x="616" y="501" type="line"/>
      <point x="569" y="543"/>
      <point x="492" y="580"/>
      <point x="390" y="580" type="curve" smooth="yes"/>
      <point x="284" y="580"/>
      <point x="242" y="559"/>
      <point x="242" y="507" type="curve" smooth="yes"/>
      <point x="242" y="446"/>
      <point x="298.138" y="429.643"/>
      <point x="428" y="418" type="curve" smooth="yes"/>
      <point x="591.368" y="403.354"/>
      <point x="715" y="352"/>
      <point x="715" y="210" type="curve" smooth="yes"/>
      <point x="715" y="62"/>
      <point x="571" y="-10"/>
      <point x="400" y="-10" type="curve" smooth="yes"/>
      <point x="236" y="-10"/>
      <point x="125" y="43"/>
      <point x="70" y="87" type="curve"/>
    </contour>
  </outline>
</glyph>
<glyph name="percent" format="2">
  <advance width="931"/>
  <unicode hex="0025"/>
  <outline>
    <contour>
      <point x="108" y="0" type="line"/>
      <point x="108" y="15" type="line"/>
      <point x="328" y="15" type="line"/>
      <point x="328" y="0" type="line"/>
    </contour>
    <contour>
      <point x="603" y="685" type="line"/>
      <point x="603" y="700" type="line"/>
      <point x="823" y="700" type="line"/>
      <point x="823" y="685" type="line"/>
    </contour>
    <contour>
      <point x="530" y="170" type="curve" smooth="yes"/>
      <point x="530" y="264"/>
      <point x="593" y="350"/>
      <point x="708" y="350" type="curve" smooth="yes"/>
      <point x="823" y="350"/>
      <point x="886" y="264"/>
      <point x="886" y="170" type="curve" smooth="yes"/>
      <point x="886" y="76"/>
      <point x="823" y="-10"/>
      <point x="708" y="-10" type="curve" smooth="yes"/>
      <point x="593" y="-10"/>
      <point x="530" y="76"/>
    </contour>
    <contour>
      <point x="656" y="170" type="curve" smooth="yes"/>
      <point x="656" y="134"/>
      <point x="678" y="115"/>
      <point x="708" y="115" type="curve" smooth="yes"/>
      <point x="738" y="115"/>
      <point x="760" y="134"/>
      <point x="760" y="170" type="curve" smooth="yes"/>
      <point x="760" y="206"/>
      <point x="738" y="225"/>
      <point x="708" y="225" type="curve" smooth="yes"/>
      <point x="678" y="225"/>
      <point x="656" y="206"/>
    </contour>
    <contour>
      <point x="45" y="530" type="curve" smooth="yes"/>
      <point x="45" y="624"/>
      <point x="108" y="710"/>
      <point x="223" y="710" type="curve" smooth="yes"/>
      <point x="338" y="710"/>
      <point x="401" y="624"/>
      <point x="401" y="530" type="curve" smooth="yes"/>
      <point x="401" y="436"/>
      <point x="338" y="350"/>
      <point x="223" y="350" type="curve" smooth="yes"/>
      <point x="108" y="350"/>
      <point x="45" y="436"/>
    </contour>
    <contour>
      <point x="171" y="530" type="curve" smooth="yes"/>
      <point x="171" y="494"/>
      <point x="193" y="475"/>
      <point x="223" y="475" type="curve" smooth="yes"/>
      <point x="253" y="475"/>
      <point x="275" y="494"/>
      <point x="275" y="530" type="curve" smooth="yes"/>
      <point x="275" y="566"/>
      <point x="253" y="585"/>
      <point x="223" y="585" type="curve" smooth="yes"/>
      <point x="193" y="585"/>
      <point x="171" y="566"/>
    </contour>
    <contour>
      <point x="643" y="700" type="line"/>
      <point x="808" y="700" type="line"/>
      <point x="288" y="0" type="line"/>
      <point x="123" y="0" type="line"/>
    </contour>
  </outline>
</glyph>
<glyph name="ampersand" format="2">
  <advance width="817"/>
  <unicode hex="0026"/>
  <outline>
    <contour>
      <point x="767" y="161" type="line"/>
      <point x="782" y="161" type="line"/>
      <point x="782" y="-19" type="line"/>
      <point x="767" y="-19" type="line"/>
    </contour>
    <contour>
      <point x="767" y="506" type="line"/>
      <point x="782" y="506" type="line"/>
      <point x="782" y="316" type="line"/>
      <point x="767" y="316" type="line"/>
    </contour>
    <contour>
      <point x="598" y="185" type="curve" smooth="yes"/>
      <point x="527.932" y="53.8838"/>
      <point x="420" y="-10"/>
      <point x="295" y="-10" type="curve" smooth="yes"/>
      <point x="160" y="-10"/>
      <point x="35" y="65"/>
      <point x="35" y="214" type="curve" smooth="yes"/>
      <point x="35" y="358"/>
      <point x="160" y="430"/>
      <point x="295" y="430" type="curve" smooth="yes"/>
      <point x="420" y="430"/>
      <point x="540.101" y="339.108"/>
      <point x="597" y="238" type="curve" smooth="yes"/>
      <point x="660.169" y="125.752"/>
      <point x="677" y="141"/>
      <point x="782" y="141" type="curve"/>
      <point x="782" y="0" type="line"/>
      <point x="627" y="0"/>
      <point x="578.104" y="57.2627"/>
      <point x="500" y="185" type="curve" smooth="yes"/>
      <point x="450.108" y="266.596"/>
      <point x="398" y="330"/>
      <point x="303" y="330" type="curve" smooth="yes"/>
      <point x="238" y="330"/>
      <point x="187" y="295"/>
      <point x="187" y="228" type="curve" smooth="yes"/>
      <point x="187" y="153"/>
      <point x="250" y="125"/>
      <point x="305" y="125" type="curve" smooth="yes"/>
      <point x="374" y="125"/>
      <point x="448.763" y="138.812"/>
      <point x="506" y="235" type="curve" smooth="yes"/>
      <point x="566.168" y="336.113"/>
      <point x="657" y="470"/>
      <point x="782" y="490" type="curve"/>
      <point x="782" y="340" type="line"/>
      <point x="697" y="330"/>
      <point x="632.268" y="249.123"/>
    </contour>
    <contour>
      <point x="127" y="540" type="curve" smooth="yes"/>
      <point x="127" y="644"/>
      <point x="215" y="715"/>
      <point x="340" y="715" type="curve" smooth="yes"/>
      <point x="465" y="715"/>
      <point x="553" y="644"/>
      <point x="553" y="540" type="curve" smooth="yes"/>
      <point x="553" y="436"/>
      <point x="465" y="380"/>
      <point x="340" y="380" type="curve" smooth="yes"/>
      <point x="215" y="380"/>
      <point x="127" y="436"/>
    </contour>
    <contour>
      <point x="258" y="535" type="curve" smooth="yes"/>
      <point x="258" y="489"/>
      <point x="293" y="465"/>
      <point x="340" y="465" type="curve" smooth="yes"/>
      <point x="387" y="465"/>
      <point x="422" y="489"/>
      <point x="422" y="535" type="curve" smooth="yes"/>
      <point x="422" y="581"/>
      <point x="387" y="610"/>
      <point x="340" y="610" type="curve" smooth="yes"/>
      <point x="293" y="610"/>
      <point x="258" y="581"/>
    </contour>
  </outline>
</glyph>
<glyph name="quotesingle" format="2">
  <advance width="295"/>
  <unicode hex="0027"/>
  <outline>
    <contour>
      <point x="60" y="735" type="line"/>
      <point x="60" y="750" type="line"/>
      <point x="255" y="750" type="line"/>
      <point x="255" y="735" type="line"/>
    </contour>
    <contour>
      <point x="80" y="750" type="line"/>
      <point x="235" y="750" type="line"/>
      <point x="205" y="460" type="line"/>
      <point x="90" y="460" type="line"/>
    </contour>
  </outline>
</glyph>
<glyph name="parenright" format="2">
  <advance width="365"/>
  <unicode hex="0029"/>
  <outline>
    <contour>
      <point x="195" y="780" type="line"/>
      <point x="195" y="765" type="line"/>
      <point x="0" y="765" type="line"/>
      <point x="0" y="780" type="line"/>
    </contour>
    <contour>
      <point x="195" y="-185" type="line"/>
      <point x="195" y="-200" type="line"/>
      <point x="0" y="-200" type="line"/>
      <point x="0" y="-185" type="line"/>
    </contour>
    <contour>
      <point x="160" y="-200" type="curve"/>
      <point x="20" y="-200" type="line"/>
      <point x="100" y="-50"/>
      <point x="150" y="100"/>
      <point x="150" y="290" type="curve" smooth="yes"/>
      <point x="150" y="480"/>
      <point x="100" y="630"/>
      <point x="20" y="780" type="curve"/>
      <point x="160" y="780" type="line"/>
      <point x="250" y="630"/>
      <point x="305" y="500"/>
      <point x="305" y="290" type="curve" smooth="yes"/>
      <point x="305" y="80"/>
      <point x="250" y="-50"/>
    </contour>
  </outline>
</glyph>
<glyph name="asterisk" format="2">
  <advance width="578"/>
  <unicode hex="002A"/>
  <outline>
    <contour>
      <point x="543" y="439" type="line"/>
      <point x="529" y="435" type="line"/>
      <point x="464" y="634" type="line"/>
      <point x="479" y="639" type="line"/>
    </contour>
    <contour>
      <point x="482" y="619" type="line"/>
      <point x="536" y="457" type="line"/>
      <point x="294" y="443" type="line"/>
      <point x="279" y="491" type="line"/>
    </contour>
    <contour>
      <point x="339" y="227" type="line"/>
      <point x="331" y="239" type="line"/>
      <point x="502" y="362" type="line"/>
      <point x="511" y="349" type="line"/>
    </contour>
    <contour>
      <point x="493" y="340" type="line"/>
      <point x="354" y="239" type="line"/>
      <point x="266" y="464" type="line"/>
      <point x="307" y="493" type="line"/>
    </contour>
    <contour>
      <point x="75" y="346" type="line"/>
      <point x="84" y="357" type="line"/>
      <point x="254" y="235" type="line"/>
      <point x="244" y="223" type="line"/>
    </contour>
    <contour>
      <point x="230" y="236" type="line"/>
      <point x="92" y="335" type="line"/>
      <point x="277" y="490" type="line"/>
      <point x="318" y="460" type="line"/>
    </contour>
    <contour>
      <point x="100" y="637" type="line"/>
      <point x="114" y="632" type="line"/>
      <point x="50" y="433" type="line"/>
      <point x="35" y="438" type="line"/>
    </contour>
    <contour>
      <point x="43" y="457" type="line"/>
      <point x="95" y="618" type="line"/>
      <point x="299" y="489" type="line"/>
      <point x="283" y="441" type="line"/>
    </contour>
    <contour>
      <point x="396" y="700" type="line"/>
      <point x="396" y="685" type="line"/>
      <point x="186" y="685" type="line"/>
      <point x="186" y="700" type="line"/>
    </contour>
    <contour>
      <point x="206" y="700" type="line"/>
      <point x="376" y="700" type="line"/>
      <point x="316" y="465" type="line"/>
      <point x="266" y="465" type="line"/>
    </contour>
  </outline>
</glyph>
<glyph name="plus" format="2">
  <advance width="675"/>
  <unicode hex="002B"/>
  <outline>
    <contour>
      <point x="425" y="500" type="line"/>
      <point x="425" y="485" type="line"/>
      <point x="245" y="485" type="line"/>
      <point x="245" y="500" type="line"/>
    </contour>
    <contour>
      <point x="425" y="25" type="line"/>
      <point x="425" y="10" type="line"/>
      <point x="245" y="10" type="line"/>
      <point x="245" y="25" type="line"/>
    </contour>
    <contour>
      <point x="570" y="340" type="line"/>
      <point x="585" y="340" type="line"/>
      <point x="585" y="170" type="line"/>
      <point x="570" y="170" type="line"/>
    </contour>
    <contour>
      <point x="90" y="340" type="line"/>
      <point x="105" y="340" type="line"/>
      <point x="105" y="170" type="line"/>
      <point x="90" y="170" type="line"/>
    </contour>
    <contour>
      <point x="90" y="190" type="line"/>
      <point x="90" y="320" type="line"/>
      <point x="585" y="320" type="line"/>
      <point x="585" y="190" type="line"/>
    </contour>
    <contour>
      <point x="265" y="500" type="line"/>
      <point x="405" y="500" type="line"/>
      <point x="405" y="10" type="line"/>
      <point x="265" y="10" type="line"/>
    </contour>
  </outline>
</glyph>
<glyph name="comma" format="2">
  <advance width="387"/>
  <unicode hex="002C"/>
  <outline>
    <contour>
      <point x="75" y="94" type="curve" smooth="yes"/>
      <point x="75" y="155"/>
      <point x="131" y="205"/>
      <point x="192" y="205" type="curve" smooth="yes"/>
      <point x="260" y="205"/>
      <point x="312" y="150"/>
      <point x="312" y="74" type="curve" smooth="yes"/>
      <point x="312" y="-32"/>
      <point x="233" y="-111"/>
      <point x="163" y="-146" type="curve"/>
      <point x="163" y="-89" type="line"/>
      <point x="198" y="-68"/>
      <point x="218" y="-2"/>
      <point x="218" y="59" type="curve"/>
      <point x="241" y="19" type="line"/>
      <point x="241" y="14"/>
      <point x="230" y="-15"/>
      <point x="188" y="-15" type="curve" smooth="yes"/>
      <point x="122" y="-15"/>
      <point x="75" y="33"/>
    </contour>
  </outline>
</glyph>
<glyph name="hyphen" format="2">
  <advance width="320"/>
  <unicode hex="002D"/>
  <outline>
    <contour>
      <point x="20" y="370" type="line"/>
      <point x="35" y="370" type="line"/>
      <point x="35" y="200" type="line"/>
      <point x="20" y="200" type="line"/>
    </contour>
    <contour>
      <point x="285" y="370" type="line"/>
      <point x="300" y="370" type="line"/>
      <point x="300" y="200" type="line"/>
      <point x="285" y="200" type="line"/>
    </contour>
    <contour>
      <point x="20" y="215" type="line"/>
      <point x="20" y="355" type="line"/>
      <point x="300" y="355" type="line"/>
      <point x="300" y="215" type="line"/>
    </contour>
  </outline>
</glyph>
<glyph name="period" format="2">
  <advance width="380"/>
  <unicode hex="002E"/>
  <outline>
    <contour>
      <point x="80" y="95" type="curve" smooth="yes"/>
      <point x="80" y="153"/>
      <point x="129" y="205"/>
      <point x="190" y="205" type="curve" smooth="yes"/>
      <point x="251" y="205"/>
      <point x="300" y="153"/>
      <point x="300" y="95" type="curve" smooth="yes"/>
      <point x="300" y="37"/>
      <point x="251" y="-15"/>
      <point x="190" y="-15" type="curve" smooth="yes"/>
      <point x="129" y="-15"/>
      <point x="80" y="37"/>
    </contour>
  </outline>
</glyph>
<glyph name="slash" format="2">
  <advance width="665"/>
  <unicode hex="002F"/>
  <outline>
    <contour>
      <point x="35" y="15" type="line"/>
      <point x="255" y="15" type="line"/>
      <point x="255" y="0" type="line"/>
      <point x="35" y="0" type="line"/>
    </contour>
    <contour>
      <point x="410" y="700" type="line"/>
      <point x="630" y="700" type="line"/>
      <point x="630" y="685" type="line"/>
      <point x="410" y="685" type="line"/>
    </contour>
    <contour>
      <point x="610" y="700" type="line"/>
      <point x="215" y="0" type="line"/>
      <point x="55" y="0" type="line"/>
      <point x="450" y="700" type="line"/>
    </contour>
  </outline>
</glyph>
<glyph name="zero" format="2">
  <advance width="810"/>
  <unicode hex="0030"/>
  <outline>
    <contour>
      <point x="210" y="350" type="curve" smooth="yes"/>
      <point x="210" y="206"/>
      <point x="302" y="130"/>
      <point x="405" y="130" type="curve" smooth="yes"/>
      <point x="508" y="130"/>
      <point x="600" y="206"/>
      <point x="600" y="350" type="curve" smooth="yes"/>
      <point x="600" y="494"/>
      <point x="508" y="570"/>
      <point x="405" y="570" type="curve" smooth="yes"/>
      <point x="302" y="570"/>
      <point x="210" y="494"/>
    </contour>
    <contour>
      <point x="45" y="350" type="curve" smooth="yes"/>
      <point x="45" y="574"/>
      <point x="216" y="710"/>
      <point x="405" y="710" type="curve" smooth="yes"/>
      <point x="594" y="710"/>
      <point x="765" y="574"/>
      <point x="765" y="350" type="curve" smooth="yes"/>
      <point x="765" y="126"/>
      <point x="594" y="-10"/>
      <point x="405" y="-10" type="curve" smooth="yes"/>
      <point x="216" y="-10"/>
      <point x="45" y="126"/>
    </contour>
  </outline>
</glyph>
<glyph name="one" format="2">
  <advance width="512"/>
  <unicode hex="0031"/>
  <outline>
    <contour>
      <point x="100" y="654" type="line"/>
      <point x="115" y="654" type="line"/>
      <point x="115" y="479" type="line"/>
      <point x="100" y="479" type="line"/>
    </contour>
    <contour>
      <point x="100" y="499" type="line"/>
      <point x="100" y="634" type="line"/>
      <point x="215" y="634" type="line"/>
      <point x="215" y="499" type="line"/>
    </contour>
    <contour>
      <point x="192" y="0" type="line"/>
      <point x="192" y="15" type="line"/>
      <point x="392" y="15" type="line"/>
      <point x="392" y="0" type="line"/>
    </contour>
    <contour>
      <point x="192" y="685" type="line"/>
      <point x="192" y="700" type="line"/>
      <point x="392" y="700" type="line"/>
      <point x="392" y="685" type="line"/>
    </contour>
    <contour>
      <point x="212" y="700" type="line"/>
      <point x="372" y="700" type="line"/>
      <point x="372" y="0" type="line"/>
      <point x="212" y="0" type="line"/>
    </contour>
  </outline>
</glyph>
<glyph name="two" format="2">
  <advance width="695"/>
  <unicode hex="0032"/>
  <outline>
    <contour>
      <point x="30" y="0" type="line"/>
      <point x="45" y="0" type="line"/>
      <point x="45" y="-20" type="line"/>
      <point x="30" y="-20" type="line"/>
    </contour>
    <contour>
      <point x="65" y="563" type="line"/>
      <point x="186" y="437" type="line"/>
      <point x="176" y="426" type="line"/>
      <point x="55" y="552" type="line"/>
    </contour>
    <contour>
      <point x="650" y="160" type="line"/>
      <point x="665" y="160" type="line"/>
      <point x="665" y="-20" type="line"/>
      <point x="650" y="-20" type="line"/>
    </contour>
    <contour>
      <point x="30" y="0" type="line"/>
      <point x="131" y="140" type="line"/>
      <point x="665" y="140" type="line"/>
      <point x="665" y="0" type="line"/>
    </contour>
    <contour>
      <point x="30" y="0" type="line"/>
      <point x="30" y="240"/>
      <point x="232.122" y="300.588"/>
      <point x="362" y="360" type="curve" smooth="yes"/>
      <point x="417.864" y="385.555"/>
      <point x="477" y="425"/>
      <point x="477" y="491" type="curve" smooth="yes"/>
      <point x="477" y="542"/>
      <point x="430" y="571"/>
      <point x="368" y="571" type="curve" smooth="yes"/>
      <point x="288" y="571"/>
      <point x="217" y="524"/>
      <point x="167" y="446" type="curve"/>
      <point x="72" y="546" type="line"/>
      <point x="142" y="645"/>
      <point x="241" y="711"/>
      <point x="378" y="711" type="curve" smooth="yes"/>
      <point x="555" y="711"/>
      <point x="630" y="612"/>
      <point x="630" y="508" type="curve" smooth="yes"/>
      <point x="630" y="366"/>
      <point x="556.068" y="307.011"/>
      <point x="460" y="264" type="curve" smooth="yes"/>
      <point x="349.317" y="214.446"/>
      <point x="264" y="180"/>
      <point x="234" y="100" type="curve"/>
    </contour>
  </outline>
</glyph>
<glyph name="three" format="2">
  <advance width="747"/>
  <unicode hex="0033"/>
  <outline>
    <contour>
      <point x="291" y="455" type="line"/>
      <point x="306" y="455" type="line"/>
      <point x="306" y="297" type="line"/>
      <point x="291" y="297" type="line"/>
    </contour>
    <contour>
      <point x="59" y="84" type="line"/>
      <point x="45" y="92" type="line"/>
      <point x="138" y="251" type="line"/>
      <point x="152" y="243" type="line"/>
    </contour>
    <contour>
      <point x="83" y="603" type="line"/>
      <point x="203" y="465" type="line"/>
      <point x="193" y="454" type="line"/>
      <point x="73" y="592" type="line"/>
    </contour>
    <contour>
      <point x="300" y="337" type="curve"/>
      <point x="300" y="435" type="line"/>
      <point x="470" y="435"/>
      <point x="515" y="466"/>
      <point x="515" y="510" type="curve" smooth="yes"/>
      <point x="515" y="552"/>
      <point x="480" y="576"/>
      <point x="400" y="576" type="curve" smooth="yes"/>
      <point x="315" y="576"/>
      <point x="230" y="543"/>
      <point x="182" y="472" type="curve"/>
      <point x="91" y="586" type="line"/>
      <point x="170" y="674"/>
      <point x="279" y="710"/>
      <point x="394" y="710" type="curve" smooth="yes"/>
      <point x="564" y="710"/>
      <point x="667" y="636"/>
      <point x="667" y="534" type="curve" smooth="yes"/>
      <point x="667" y="395"/>
      <point x="485" y="337"/>
    </contour>
    <contour>
      <point x="390" y="-10" type="curve" smooth="yes"/>
      <point x="205" y="-10"/>
      <point x="114" y="64"/>
      <point x="64" y="105" type="curve"/>
      <point x="133" y="238" type="line"/>
      <point x="173" y="194"/>
      <point x="270" y="130"/>
      <point x="380" y="130" type="curve" smooth="yes"/>
      <point x="500" y="130"/>
      <point x="543" y="169"/>
      <point x="543" y="225" type="curve" smooth="yes"/>
      <point x="543" y="291"/>
      <point x="500" y="317"/>
      <point x="300" y="317" type="curve"/>
      <point x="300" y="415" type="line"/>
      <point x="525" y="415"/>
      <point x="702" y="355"/>
      <point x="702" y="206" type="curve" smooth="yes"/>
      <point x="702" y="69"/>
      <point x="565" y="-10"/>
    </contour>
  </outline>
</glyph>
<glyph name="four" format="2">
  <advance width="743"/>
  <unicode hex="0034"/>
  <outline>
    <contour>
      <point x="359" y="685" type="line"/>
      <point x="359" y="700" type="line"/>
      <point x="613" y="700" type="line"/>
      <point x="613" y="685" type="line"/>
    </contour>
    <contour>
      <point x="30" y="130" type="line"/>
      <point x="45" y="130" type="line"/>
      <point x="45" y="110" type="line"/>
      <point x="30" y="110" type="line"/>
    </contour>
    <contour>
      <point x="688" y="266" type="line"/>
      <point x="703" y="266" type="line"/>
      <point x="703" y="106" type="line"/>
      <point x="688" y="106" type="line"/>
    </contour>
    <contour>
      <point x="423" y="0" type="line"/>
      <point x="423" y="15" type="line"/>
      <point x="613" y="15" type="line"/>
      <point x="613" y="0" type="line"/>
    </contour>
    <contour>
      <point x="30" y="130" type="line"/>
      <point x="30" y="260" type="line"/>
      <point x="398" y="700" type="line"/>
      <point x="593" y="700" type="line"/>
      <point x="593" y="0" type="line"/>
      <point x="443" y="0" type="line"/>
      <point x="443" y="176" type="line"/>
      <point x="443" y="187" type="line"/>
      <point x="443" y="560" type="line"/>
      <point x="177" y="250" type="line"/>
      <point x="478" y="250" type="line"/>
      <point x="515" y="250" type="line"/>
      <point x="703" y="250" type="line"/>
      <point x="703" y="130" type="line"/>
    </contour>
  </outline>
</glyph>
<glyph name="five" format="2">
  <advance width="732"/>
  <unicode hex="0035"/>
  <outline>
    <contour>
      <point x="30" y="96" type="line"/>
      <point x="141" y="240" type="line"/>
      <point x="149" y="231" type="line"/>
      <point x="38" y="87" type="line"/>
    </contour>
    <contour>
      <point x="67" y="381" type="line"/>
      <point x="75" y="390" type="line"/>
      <point x="226" y="296" type="line"/>
      <point x="218" y="287" type="line"/>
    </contour>
    <contour>
      <point x="65" y="685" type="line"/>
      <point x="65" y="700" type="line"/>
      <point x="85" y="700" type="line"/>
      <point x="85" y="685" type="line"/>
    </contour>
    <contour>
      <point x="614" y="720" type="line"/>
      <point x="629" y="720" type="line"/>
      <point x="629" y="539" type="line"/>
      <point x="614" y="539" type="line"/>
    </contour>
    <contour>
      <point x="682" y="240" type="curve" smooth="yes"/>
      <point x="682" y="71"/>
      <point x="551" y="-10"/>
      <point x="376" y="-10" type="curve" smooth="yes"/>
      <point x="217" y="-10"/>
      <point x="94" y="52"/>
      <point x="48" y="107" type="curve"/>
      <point x="132" y="220" type="line"/>
      <point x="173" y="175"/>
      <point x="269" y="130"/>
      <point x="376" y="130" type="curve" smooth="yes"/>
      <point x="471" y="130"/>
      <point x="529" y="159"/>
      <point x="529" y="240" type="curve" smooth="yes"/>
      <point x="529" y="321"/>
      <point x="471" y="356"/>
      <point x="396" y="356" type="curve" smooth="yes"/>
      <point x="329" y="356"/>
      <point x="262" y="337"/>
      <point x="211" y="300" type="curve"/>
      <point x="85" y="380" type="line"/>
      <point x="85" y="700" type="line"/>
      <point x="629" y="700" type="line"/>
      <point x="629" y="570" type="line"/>
      <point x="225" y="570" type="line"/>
      <point x="225" y="443" type="line"/>
      <point x="258" y="462"/>
      <point x="317" y="486"/>
      <point x="402" y="486" type="curve" smooth="yes"/>
      <point x="562" y="486"/>
      <point x="682" y="389"/>
    </contour>
  </outline>
</glyph>
<glyph name="six" format="2">
  <advance width="694"/>
  <unicode hex="0036"/>
  <outline>
    <contour>
      <point x="546" y="517" type="line"/>
      <point x="628" y="652" type="line"/>
      <point x="637" y="645" type="line"/>
      <point x="555" y="510" type="line"/>
    </contour>
    <contour>
      <point x="394" y="580" type="curve"/>
      <point x="404" y="710" type="line"/>
      <point x="494" y="710"/>
      <point x="568" y="676"/>
      <point x="622" y="637" type="curve"/>
      <point x="558" y="526" type="line"/>
      <point x="516" y="552"/>
      <point x="464" y="580"/>
    </contour>
    <contour>
      <point x="509" y="235" type="curve" smooth="yes"/>
      <point x="509" y="298"/>
      <point x="457" y="340"/>
      <point x="368" y="340" type="curve" smooth="yes"/>
      <point x="285" y="340"/>
      <point x="209" y="306"/>
      <point x="209" y="226" type="curve"/>
      <point x="158" y="280" type="line"/>
      <point x="158" y="397"/>
      <point x="249" y="470"/>
      <point x="380" y="470" type="curve" smooth="yes"/>
      <point x="491" y="470"/>
      <point x="659" y="413"/>
      <point x="659" y="240" type="curve" smooth="yes"/>
      <point x="659" y="80"/>
      <point x="544" y="-10"/>
      <point x="373" y="-10" type="curve" smooth="yes"/>
      <point x="182" y="-10"/>
      <point x="35" y="100"/>
      <point x="35" y="330" type="curve" smooth="yes"/>
      <point x="35" y="563"/>
      <point x="182" y="710"/>
      <point x="404" y="710" type="curve"/>
      <point x="394" y="580" type="line"/>
      <point x="270" y="580"/>
      <point x="178" y="492"/>
      <point x="178" y="350" type="curve"/>
      <point x="209" y="226" type="line"/>
      <point x="209" y="162"/>
      <point x="264" y="120"/>
      <point x="373" y="120" type="curve" smooth="yes"/>
      <point x="472" y="120"/>
      <point x="509" y="161"/>
    </contour>
  </outline>
</glyph>
<glyph name="seven" format="2">
  <advance width="679"/>
  <unicode hex="0037"/>
  <outline>
    <contour>
      <point x="136" y="0" type="line"/>
      <point x="136" y="15" type="line"/>
      <point x="376" y="15" type="line"/>
      <point x="376" y="0" type="line"/>
    </contour>
    <contour>
      <point x="634" y="720" type="line"/>
      <point x="649" y="720" type="line"/>
      <point x="649" y="699" type="line"/>
      <point x="634" y="699" type="line"/>
    </contour>
    <contour>
      <point x="30" y="720" type="line"/>
      <point x="45" y="720" type="line"/>
      <point x="45" y="519" type="line"/>
      <point x="30" y="519" type="line"/>
    </contour>
    <contour>
      <point x="30" y="550" type="line"/>
      <point x="30" y="700" type="line"/>
      <point x="649" y="700" type="line"/>
      <point x="649" y="581" type="line"/>
      <point x="343" y="0" type="line"/>
      <point x="152" y="0" type="line"/>
      <point x="469" y="550" type="line"/>
    </contour>
  </outline>
</glyph>
<glyph name="eight" format="2">
  <advance width="746"/>
  <unicode hex="0038"/>
  <outline>
    <contour>
      <point x="70" y="524" type="curve" smooth="yes"/>
      <point x="70" y="633"/>
      <point x="193" y="710"/>
      <point x="373" y="710" type="curve" smooth="yes"/>
      <point x="553" y="710"/>
      <point x="676" y="633"/>
      <point x="676" y="524" type="curve" smooth="yes"/>
      <point x="676" y="405"/>
      <point x="558" y="340"/>
      <point x="373" y="340" type="curve" smooth="yes"/>
      <point x="188" y="340"/>
      <point x="70" y="405"/>
    </contour>
    <contour>
      <point x="236" y="506" type="curve" smooth="yes"/>
      <point x="236" y="462"/>
      <point x="293" y="430"/>
      <point x="373" y="430" type="curve" smooth="yes"/>
      <point x="453" y="430"/>
      <point x="510" y="462"/>
      <point x="510" y="506" type="curve" smooth="yes"/>
      <point x="510" y="552"/>
      <point x="458" y="585"/>
      <point x="373" y="585" type="curve" smooth="yes"/>
      <point x="288" y="585"/>
      <point x="236" y="552"/>
    </contour>
    <contour>
      <point x="45" y="195" type="curve" smooth="yes"/>
      <point x="45" y="324"/>
      <point x="188" y="405"/>
      <point x="373" y="405" type="curve" smooth="yes"/>
      <point x="558" y="405"/>
      <point x="701" y="324"/>
      <point x="701" y="195" type="curve" smooth="yes"/>
      <point x="701" y="76"/>
      <point x="568" y="-10"/>
      <point x="373" y="-10" type="curve" smooth="yes"/>
      <point x="178" y="-10"/>
      <point x="45" y="76"/>
    </contour>
    <contour>
      <point x="216" y="222" type="curve" smooth="yes"/>
      <point x="216" y="166"/>
      <point x="273" y="130"/>
      <point x="373" y="130" type="curve" smooth="yes"/>
      <point x="473" y="130"/>
      <point x="530" y="166"/>
      <point x="530" y="222" type="curve" smooth="yes"/>
      <point x="530" y="268"/>
      <point x="473" y="315"/>
      <point x="373" y="315" type="curve" smooth="yes"/>
      <point x="273" y="315"/>
      <point x="216" y="268"/>
    </contour>
  </outline>
</glyph>
<glyph name="nine" format="2">
  <advance width="717"/>
  <unicode hex="0039"/>
  <outline>
    <contour>
      <point x="132" y="200" type="line"/>
      <point x="44" y="68" type="line"/>
      <point x="35" y="75" type="line"/>
      <point x="123" y="207" type="line"/>
    </contour>
    <contour>
      <point x="323" y="120" type="curve"/>
      <point x="313" y="-10" type="line"/>
      <point x="203" y="-10"/>
      <point x="104" y="34"/>
      <point x="50" y="83" type="curve"/>
      <point x="120" y="191" type="line"/>
      <point x="162" y="155"/>
      <point x="243" y="120"/>
    </contour>
    <contour>
      <point x="208" y="465" type="curve" smooth="yes"/>
      <point x="208" y="402"/>
      <point x="280" y="360"/>
      <point x="359" y="360" type="curve" smooth="yes"/>
      <point x="432" y="360"/>
      <point x="508" y="394"/>
      <point x="508" y="474" type="curve"/>
      <point x="559" y="420" type="line"/>
      <point x="559" y="303"/>
      <point x="468" y="230"/>
      <point x="337" y="230" type="curve" smooth="yes"/>
      <point x="226" y="230"/>
      <point x="58" y="287"/>
      <point x="58" y="460" type="curve" smooth="yes"/>
      <point x="58" y="620"/>
      <point x="173" y="710"/>
      <point x="344" y="710" type="curve" smooth="yes"/>
      <point x="535" y="710"/>
      <point x="682" y="600"/>
      <point x="682" y="370" type="curve" smooth="yes"/>
      <point x="682" y="137"/>
      <point x="535" y="-10"/>
      <point x="313" y="-10" type="curve"/>
      <point x="323" y="120" type="line"/>
      <point x="447" y="120"/>
      <point x="539" y="208"/>
      <point x="539" y="350" type="curve"/>
      <point x="508" y="474" type="line"/>
      <point x="508" y="538"/>
      <point x="453" y="580"/>
      <point x="354" y="580" type="curve" smooth="yes"/>
      <point x="265" y="580"/>
      <point x="208" y="539"/>
    </contour>
  </outline>
</glyph>
<glyph name="less" format="2">
  <advance width="640"/>
  <unicode hex="003C"/>
  <outline>
    <contour>
      <point x="65" y="335" type="line"/>
      <point x="80" y="335" type="line"/>
      <point x="80" y="180" type="line"/>
      <point x="65" y="180" type="line"/>
    </contour>
    <contour>
      <point x="560" y="520" type="line"/>
      <point x="575" y="520" type="line"/>
      <point x="575" y="350" type="line"/>
      <point x="560" y="350" type="line"/>
    </contour>
    <contour>
      <point x="560" y="165" type="line"/>
      <point x="575" y="165" type="line"/>
      <point x="575" y="-5" type="line"/>
      <point x="560" y="-5" type="line"/>
    </contour>
    <contour>
      <point x="237" y="262" type="line"/>
      <point x="575" y="145" type="line"/>
      <point x="575" y="5" type="line"/>
      <point x="65" y="205" type="line"/>
      <point x="65" y="310" type="line"/>
      <point x="575" y="510" type="line"/>
      <point x="575" y="370" type="line"/>
    </contour>
  </outline>
</glyph>
<glyph name="equal" format="2">
  <advance width="615"/>
  <unicode hex="003D"/>
  <outline>
    <contour>
      <point x="535" y="445" type="line"/>
      <point x="550" y="445" type="line"/>
      <point x="550" y="275" type="line"/>
      <point x="535" y="275" type="line"/>
    </contour>
    <contour>
      <point x="535" y="230" type="line"/>
      <point x="550" y="230" type="line"/>
      <point x="550" y="60" type="line"/>
      <point x="535" y="60" type="line"/>
    </contour>
    <contour>
      <point x="65" y="445" type="line"/>
      <point x="80" y="445" type="line"/>
      <point x="80" y="275" type="line"/>
      <point x="65" y="275" type="line"/>
    </contour>
    <contour>
      <point x="65" y="230" type="line"/>
      <point x="80" y="230" type="line"/>
      <point x="80" y="60" type="line"/>
      <point x="65" y="60" type="line"/>
    </contour>
    <contour>
      <point x="65" y="75" type="line"/>
      <point x="65" y="215" type="line"/>
      <point x="550" y="215" type="line"/>
      <point x="550" y="75" type="line"/>
    </contour>
    <contour>
      <point x="65" y="290" type="line"/>
      <point x="65" y="430" type="line"/>
      <point x="550" y="430" type="line"/>
      <point x="550" y="290" type="line"/>
    </contour>
  </outline>
</glyph>
<glyph name="greater" format="2">
  <advance width="640"/>
  <unicode hex="003E"/>
  <outline>
    <contour>
      <point x="575" y="180" type="line"/>
      <point x="560" y="180" type="line"/>
      <point x="560" y="335" type="line"/>
      <point x="575" y="335" type="line"/>
    </contour>
    <contour>
      <point x="80" y="-5" type="line"/>
      <point x="65" y="-5" type="line"/>
      <point x="65" y="165" type="line"/>
      <point x="80" y="165" type="line"/>
    </contour>
    <contour>
      <point x="80" y="350" type="line"/>
      <point x="65" y="350" type="line"/>
      <point x="65" y="520" type="line"/>
      <point x="80" y="520" type="line"/>
    </contour>
    <contour>
      <point x="403" y="253" type="line"/>
      <point x="65" y="370" type="line"/>
      <point x="65" y="510" type="line"/>
      <point x="575" y="310" type="line"/>
      <point x="575" y="205" type="line"/>
      <point x="65" y="5" type="line"/>
      <point x="65" y="145" type="line"/>
    </contour>
  </outline>
</glyph>
<glyph name="question" format="2">
  <advance width="557"/>
  <unicode hex="003F"/>
  <outline>
    <contour>
      <point x="59" y="601" type="line"/>
      <point x="169" y="487" type="line"/>
      <point x="159" y="477" type="line"/>
      <point x="49" y="591" type="line"/>
    </contour>
    <contour>
      <point x="176" y="225" type="line"/>
      <point x="176" y="240" type="line"/>
      <point x="346" y="240" type="line"/>
      <point x="346" y="225" type="line"/>
    </contour>
    <contour>
      <point x="160" y="85" type="curve" smooth="yes"/>
      <point x="160" y="143"/>
      <point x="209" y="185"/>
      <point x="270" y="185" type="curve" smooth="yes"/>
      <point x="331" y="185"/>
      <point x="380" y="143"/>
      <point x="380" y="85" type="curve" smooth="yes"/>
      <point x="380" y="27"/>
      <point x="331" y="-15"/>
      <point x="270" y="-15" type="curve" smooth="yes"/>
      <point x="209" y="-15"/>
      <point x="160" y="27"/>
    </contour>
    <contour>
      <point x="317" y="509" type="curve" smooth="yes"/>
      <point x="317" y="535"/>
      <point x="291" y="552"/>
      <point x="258" y="552" type="curve" smooth="yes"/>
      <point x="216" y="552"/>
      <point x="181" y="538"/>
      <point x="155" y="500" type="curve"/>
      <point x="64" y="583" type="line"/>
      <point x="110" y="663"/>
      <point x="180" y="710"/>
      <point x="289" y="710" type="curve" smooth="yes"/>
      <point x="394" y="710"/>
      <point x="477" y="640"/>
      <point x="477" y="541" type="curve" smooth="yes"/>
      <point x="477" y="372"/>
      <point x="322" y="376"/>
      <point x="322" y="264" type="curve" smooth="yes"/>
      <point x="322" y="255"/>
      <point x="323" y="236"/>
      <point x="327" y="225" type="curve"/>
      <point x="197" y="225" type="line"/>
      <point x="195" y="243"/>
      <point x="193" y="259"/>
      <point x="193" y="277" type="curve" smooth="yes"/>
      <point x="193" y="367"/>
      <point x="317" y="429"/>
    </contour>
  </outline>
</glyph>
<glyph name="A" format="2">
  <advance width="794"/>
  <unicode hex="0041"/>
  <anchor x="689" y="0" name="cedilla"/>
  <anchor x="412" y="0" name="bottom"/>
  <anchor x="395" y="700" name="top"/>
  <outline>
    <contour>
      <point x="275" y="685" type="line"/>
      <point x="275" y="700" type="line"/>
      <point x="519" y="700" type="line"/>
      <point x="519" y="685" type="line"/>
    </contour>
    <contour>
      <point x="587" y="0" type="line"/>
      <point x="587" y="15" type="line"/>
      <point x="794" y="15" type="line"/>
      <point x="794" y="0" type="line"/>
    </contour>
    <contour>
      <point x="0" y="0" type="line"/>
      <point x="0" y="15" type="line"/>
      <point x="207" y="15" type="line"/>
      <point x="207" y="0" type="line"/>
    </contour>
    <contour>
      <point x="179" y="162" type="line"/>
      <point x="209" y="290" type="line"/>
      <point x="599" y="290" type="line"/>
      <point x="629" y="162" type="line"/>
    </contour>
    <contour>
      <point x="397" y="561" type="line"/>
      <point x="182" y="0" type="line"/>
      <point x="10" y="0" type="line"/>
      <point x="295" y="700" type="line"/>
      <point x="499" y="700" type="line"/>
      <point x="784" y="0" type="line"/>
      <point x="612" y="0" type="line"/>
    </contour>
  </outline>
</glyph>
<glyph name="B" format="2">
  <advance width="803"/>
  <unicode hex="0042"/>
  <anchor x="337" y="700" name="top"/>
  <anchor x="333" y="0" name="bottom"/>
  <outline>
    <contour>
      <point x="65" y="0" type="line"/>
      <point x="65" y="15" type="line"/>
      <point x="85" y="15" type="line"/>
      <point x="85" y="0" type="line"/>
    </contour>
    <contour>
      <point x="65" y="685" type="line"/>
      <point x="65" y="700" type="line"/>
      <point x="85" y="700" type="line"/>
      <point x="85" y="685" type="line"/>
    </contour>
    <contour>
      <point x="156" y="341" type="line"/>
      <point x="156" y="435" type="line"/>
      <point x="475" y="435" type="line" smooth="yes"/>
      <point x="545" y="435"/>
      <point x="575" y="453"/>
      <point x="575" y="499" type="curve" smooth="yes"/>
      <point x="575" y="538"/>
      <point x="545" y="560"/>
      <point x="485" y="560" type="curve" smooth="yes"/>
      <point x="239" y="560" type="line"/>
      <point x="239" y="140" type="line"/>
      <point x="490" y="140" type="line" smooth="yes"/>
      <point x="550" y="140"/>
      <point x="593" y="159"/>
      <point x="593" y="225" type="curve" smooth="yes"/>
      <point x="593" y="281"/>
      <point x="550" y="305"/>
      <point x="490" y="305" type="curve" smooth="yes"/>
      <point x="156" y="305" type="line"/>
      <point x="156" y="376" type="line"/>
      <point x="525" y="376" type="line" smooth="yes"/>
      <point x="670" y="376"/>
      <point x="753" y="309"/>
      <point x="753" y="190" type="curve" smooth="yes"/>
      <point x="753" y="71"/>
      <point x="670" y="0"/>
      <point x="525" y="0" type="curve" smooth="yes"/>
      <point x="85" y="0" type="line"/>
      <point x="85" y="700" type="line"/>
      <point x="505" y="700" type="line" smooth="yes"/>
      <point x="650" y="700"/>
      <point x="735" y="629"/>
      <point x="735" y="520" type="curve" smooth="yes"/>
      <point x="735" y="374"/>
      <point x="600" y="341"/>
      <point x="495" y="341" type="curve" smooth="yes"/>
    </contour>
  </outline>
</glyph>
<glyph name="C" format="2">
  <advance width="855"/>
  <unicode hex="0043"/>
  <anchor x="475" y="700" name="top"/>
  <anchor x="475" y="0" name="bottom"/>
  <anchor x="475" y="0" name="_top"/>
  <anchor x="475" y="0" name="cedilla"/>
  <outline>
    <contour>
      <point x="728" y="246" type="line"/>
      <point x="835" y="106" type="line"/>
      <point x="822" y="98" type="line"/>
      <point x="715" y="238" type="line"/>
    </contour>
    <contour>
      <point x="800" y="619" type="line"/>
      <point x="813" y="611" type="line"/>
      <point x="707" y="469" type="line"/>
      <point x="694" y="477" type="line"/>
    </contour>
    <contour>
      <point x="215" y="350" type="curve" smooth="yes"/>
      <point x="215" y="212"/>
      <point x="307" y="130"/>
      <point x="475" y="130" type="curve" smooth="yes"/>
      <point x="584" y="130"/>
      <point x="669" y="180"/>
      <point x="728" y="232" type="curve"/>
      <point x="820" y="115" type="line"/>
      <point x="751" y="63"/>
      <point x="637" y="-10"/>
      <point x="475" y="-10" type="curve" smooth="yes"/>
      <point x="212" y="-10"/>
      <point x="50" y="136"/>
      <point x="50" y="350" type="curve" smooth="yes"/>
      <point x="50" y="564"/>
      <point x="212" y="710"/>
      <point x="475" y="710" type="curve" smooth="yes"/>
      <point x="637" y="710"/>
      <point x="741" y="647"/>
      <point x="800" y="605" type="curve"/>
      <point x="709" y="486" type="line"/>
      <point x="660" y="528"/>
      <point x="584" y="570"/>
      <point x="475" y="570" type="curve" smooth="yes"/>
      <point x="307" y="570"/>
      <point x="215" y="488"/>
    </contour>
  </outline>
</glyph>
<glyph name="D" format="2">
  <advance width="852"/>
  <unicode hex="0044"/>
  <anchor x="387" y="700" name="top"/>
  <anchor x="356" y="0" name="bottom"/>
  <anchor x="356" y="0" name="cedilla"/>
  <outline>
    <contour>
      <point x="65" y="0" type="line"/>
      <point x="65" y="15" type="line"/>
      <point x="85" y="15" type="line"/>
      <point x="85" y="0" type="line"/>
    </contour>
    <contour>
      <point x="65" y="685" type="line"/>
      <point x="65" y="700" type="line"/>
      <point x="85" y="700" type="line"/>
      <point x="85" y="685" type="line"/>
    </contour>
    <contour>
      <point x="85" y="700" type="line"/>
      <point x="255" y="700" type="line"/>
      <point x="255" y="0" type="line"/>
      <point x="85" y="0" type="line"/>
    </contour>
    <contour>
      <point x="447" y="0" type="curve" smooth="yes"/>
      <point x="132" y="0" type="line"/>
      <point x="132" y="140" type="line"/>
      <point x="427" y="140" type="line" smooth="yes"/>
      <point x="555" y="140"/>
      <point x="627" y="217"/>
      <point x="627" y="350" type="curve" smooth="yes"/>
      <point x="627" y="483"/>
      <point x="555" y="560"/>
      <point x="427" y="560" type="curve" smooth="yes"/>
      <point x="132" y="560" type="line"/>
      <point x="132" y="700" type="line"/>
      <point x="447" y="700" type="line" smooth="yes"/>
      <point x="651" y="700"/>
      <point x="797" y="569"/>
      <point x="797" y="350" type="curve" smooth="yes"/>
      <point x="797" y="131"/>
      <point x="651" y="0"/>
    </contour>
  </outline>
</glyph>
<glyph name="E" format="2">
  <advance width="746"/>
  <unicode hex="0045"/>
  <anchor x="387" y="700" name="top"/>
  <anchor x="373" y="0" name="bottom"/>
  <anchor x="578" y="0" name="cedilla"/>
  <outline>
    <contour>
      <point x="686" y="170" type="line"/>
      <point x="701" y="170" type="line"/>
      <point x="701" y="-10" type="line"/>
      <point x="686" y="-10" type="line"/>
    </contour>
    <contour>
      <point x="686" y="715" type="line"/>
      <point x="701" y="715" type="line"/>
      <point x="701" y="535" type="line"/>
      <point x="686" y="535" type="line"/>
    </contour>
    <contour>
      <point x="516" y="440" type="line"/>
      <point x="531" y="440" type="line"/>
      <point x="531" y="275" type="line"/>
      <point x="516" y="275" type="line"/>
    </contour>
    <contour>
      <point x="65" y="0" type="line"/>
      <point x="65" y="15" type="line"/>
      <point x="85" y="15" type="line"/>
      <point x="85" y="0" type="line"/>
    </contour>
    <contour>
      <point x="65" y="685" type="line"/>
      <point x="65" y="700" type="line"/>
      <point x="85" y="700" type="line"/>
      <point x="85" y="685" type="line"/>
    </contour>
    <contour>
      <point x="157" y="0" type="line"/>
      <point x="157" y="140" type="line"/>
      <point x="701" y="140" type="line"/>
      <point x="701" y="0" type="line"/>
    </contour>
    <contour>
      <point x="157" y="560" type="line"/>
      <point x="157" y="700" type="line"/>
      <point x="701" y="700" type="line"/>
      <point x="701" y="560" type="line"/>
    </contour>
    <contour>
      <point x="157" y="290" type="line"/>
      <point x="157" y="425" type="line"/>
      <point x="531" y="425" type="line"/>
      <point x="531" y="290" type="line"/>
    </contour>
    <contour>
      <point x="85" y="700" type="line"/>
      <point x="245" y="700" type="line"/>
      <point x="245" y="0" type="line"/>
      <point x="85" y="0" type="line"/>
    </contour>
  </outline>
</glyph>
<glyph name="F" format="2">
  <advance width="731"/>
  <unicode hex="0046"/>
  <anchor x="407" y="700" name="top"/>
  <anchor x="164" y="0" name="bottom"/>
  <outline>
    <contour>
      <point x="686" y="715" type="line"/>
      <point x="701" y="715" type="line"/>
      <point x="701" y="535" type="line"/>
      <point x="686" y="535" type="line"/>
    </contour>
    <contour>
      <point x="526" y="440" type="line"/>
      <point x="541" y="440" type="line"/>
      <point x="541" y="275" type="line"/>
      <point x="526" y="275" type="line"/>
    </contour>
    <contour>
      <point x="65" y="0" type="line"/>
      <point x="65" y="15" type="line"/>
      <point x="275" y="15" type="line"/>
      <point x="275" y="0" type="line"/>
    </contour>
    <contour>
      <point x="65" y="685" type="line"/>
      <point x="65" y="700" type="line"/>
      <point x="85" y="700" type="line"/>
      <point x="85" y="685" type="line"/>
    </contour>
    <contour>
      <point x="157" y="560" type="line"/>
      <point x="157" y="700" type="line"/>
      <point x="701" y="700" type="line"/>
      <point x="701" y="560" type="line"/>
    </contour>
    <contour>
      <point x="157" y="290" type="line"/>
      <point x="157" y="425" type="line"/>
      <point x="541" y="425" type="line"/>
      <point x="541" y="290" type="line"/>
    </contour>
    <contour>
      <point x="85" y="700" type="line"/>
      <point x="245" y="700" type="line"/>
      <point x="245" y="0" type="line"/>
      <point x="85" y="0" type="line"/>
    </contour>
  </outline>
</glyph>
<glyph name="G" format="2">
  <advance width="875"/>
  <unicode hex="0047"/>
  <anchor x="475" y="700" name="top"/>
  <anchor x="475" y="0" name="bottom"/>
  <anchor x="475" y="0" name="cedilla"/>
  <outline>
    <contour>
      <point x="805" y="85" type="line"/>
      <point x="805" y="100" type="line"/>
      <point x="825" y="100" type="line"/>
      <point x="825" y="85" type="line"/>
    </contour>
    <contour>
      <point x="805" y="365" type="line"/>
      <point x="805" y="380" type="line"/>
      <point x="825" y="380" type="line"/>
      <point x="825" y="365" type="line"/>
    </contour>
    <contour>
      <point x="487" y="225" type="line"/>
      <point x="472" y="225" type="line"/>
      <point x="472" y="395" type="line"/>
      <point x="487" y="395" type="line"/>
    </contour>
    <contour>
      <point x="805" y="380" type="line"/>
      <point x="805" y="255" type="line"/>
      <point x="472" y="255" type="line"/>
      <point x="472" y="380" type="line"/>
    </contour>
    <contour>
      <point x="650" y="380" type="line"/>
      <point x="805" y="380" type="line"/>
      <point x="805" y="85" type="line"/>
      <point x="650" y="85" type="line"/>
    </contour>
    <contour>
      <point x="800" y="619" type="line"/>
      <point x="813" y="611" type="line"/>
      <point x="706" y="469" type="line"/>
      <point x="693" y="477" type="line"/>
    </contour>
    <contour>
      <point x="215" y="350" type="curve" smooth="yes"/>
      <point x="215" y="212"/>
      <point x="309" y="130"/>
      <point x="475" y="130" type="curve" smooth="yes"/>
      <point x="574" y="130"/>
      <point x="646" y="170"/>
      <point x="705" y="212" type="curve"/>
      <point x="805" y="85" type="line"/>
      <point x="736" y="43"/>
      <point x="647" y="-10"/>
      <point x="475" y="-10" type="curve" smooth="yes"/>
      <point x="231" y="-10"/>
      <point x="50" y="126"/>
      <point x="50" y="350" type="curve" smooth="yes"/>
      <point x="50" y="574"/>
      <point x="231" y="710"/>
      <point x="475" y="710" type="curve" smooth="yes"/>
      <point x="647" y="710"/>
      <point x="741" y="647"/>
      <point x="800" y="605" type="curve"/>
      <point x="708" y="486" type="line"/>
      <point x="659" y="528"/>
      <point x="584" y="570"/>
      <point x="475" y="570" type="curve" smooth="yes"/>
      <point x="309" y="570"/>
      <point x="215" y="488"/>
    </contour>
  </outline>
</glyph>
<glyph name="I" format="2">
  <advance width="340"/>
  <unicode hex="0049"/>
  <anchor x="170" y="700" name="top"/>
  <anchor x="170" y="0" name="bottom"/>
  <anchor x="170" y="0" name="cedilla"/>
  <outline>
    <contour>
      <point x="65" y="0" type="line"/>
      <point x="65" y="15" type="line"/>
      <point x="275" y="15" type="line"/>
      <point x="275" y="0" type="line"/>
    </contour>
    <contour>
      <point x="65" y="685" type="line"/>
      <point x="65" y="700" type="line"/>
      <point x="275" y="700" type="line"/>
      <point x="275" y="685" type="line"/>
    </contour>
    <contour>
      <point x="85" y="700" type="line"/>
      <point x="255" y="700" type="line"/>
      <point x="255" y="0" type="line"/>
      <point x="85" y="0" type="line"/>
    </contour>
  </outline>
</glyph>
<glyph name="J" format="2">
  <advance width="622"/>
  <unicode hex="004A"/>
  <anchor x="403" y="700" name="top"/>
  <anchor x="284" y="0" name="bottom"/>
  <outline>
    <contour>
      <point x="80" y="225" type="line"/>
      <point x="93" y="217" type="line"/>
      <point x="13" y="52" type="line"/>
      <point x="0" y="60" type="line"/>
    </contour>
    <contour>
      <point x="352" y="685" type="line"/>
      <point x="352" y="700" type="line"/>
      <point x="562" y="700" type="line"/>
      <point x="562" y="685" type="line"/>
    </contour>
    <contour>
      <point x="80" y="211" type="line"/>
      <point x="114" y="180"/>
      <point x="185" y="125"/>
      <point x="281" y="125" type="curve" smooth="yes"/>
      <point x="351" y="125"/>
      <point x="377" y="156"/>
      <point x="377" y="215" type="curve" smooth="yes"/>
      <point x="377" y="700" type="line"/>
      <point x="542" y="700" type="line"/>
      <point x="542" y="180" type="line" smooth="yes"/>
      <point x="542" y="41"/>
      <point x="428" y="-20"/>
      <point x="274" y="-20" type="curve" smooth="yes"/>
      <point x="171" y="-20"/>
      <point x="61" y="30"/>
      <point x="16" y="70" type="curve"/>
    </contour>
  </outline>
</glyph>
<glyph name="K" format="2">
  <advance width="795"/>
  <unicode hex="004B"/>
  <anchor x="401" y="700" name="top"/>
  <anchor x="395" y="0" name="bottom"/>
  <anchor x="164" y="0" name="cedilla"/>
  <outline>
    <contour>
      <point x="546" y="0" type="line"/>
      <point x="546" y="15" type="line"/>
      <point x="785" y="15" type="line"/>
      <point x="785" y="0" type="line"/>
    </contour>
    <contour>
      <point x="355" y="380" type="line"/>
      <point x="465" y="488" type="line"/>
      <point x="775" y="0" type="line"/>
      <point x="576" y="0" type="line"/>
    </contour>
    <contour>
      <point x="512" y="685" type="line"/>
      <point x="512" y="700" type="line"/>
      <point x="760" y="700" type="line"/>
      <point x="760" y="685" type="line"/>
    </contour>
    <contour>
      <point x="552" y="700" type="line"/>
      <point x="760" y="700" type="line"/>
      <point x="180" y="150" type="line"/>
      <point x="120" y="249" type="line"/>
    </contour>
    <contour>
      <point x="65" y="0" type="line"/>
      <point x="65" y="15" type="line"/>
      <point x="265" y="15" type="line"/>
      <point x="265" y="0" type="line"/>
    </contour>
    <contour>
      <point x="65" y="685" type="line"/>
      <point x="65" y="700" type="line"/>
      <point x="265" y="700" type="line"/>
      <point x="265" y="685" type="line"/>
    </contour>
    <contour>
      <point x="85" y="700" type="line"/>
      <point x="245" y="700" type="line"/>
      <point x="245" y="0" type="line"/>
      <point x="85" y="0" type="line"/>
    </contour>
  </outline>
</glyph>
<glyph name="L" format="2">
  <advance width="720"/>
  <unicode hex="004C"/>
  <anchor x="167" y="700" name="top"/>
  <anchor x="408" y="0" name="bottom"/>
  <anchor x="408" y="0" name="cedilla"/>
  <outline>
    <contour>
      <point x="690" y="170" type="line"/>
      <point x="705" y="170" type="line"/>
      <point x="705" y="-10" type="line"/>
      <point x="690" y="-10" type="line"/>
    </contour>
    <contour>
      <point x="65" y="0" type="line"/>
      <point x="65" y="15" type="line"/>
      <point x="85" y="15" type="line"/>
      <point x="85" y="0" type="line"/>
    </contour>
    <contour>
      <point x="65" y="685" type="line"/>
      <point x="65" y="700" type="line"/>
      <point x="270" y="700" type="line"/>
      <point x="270" y="685" type="line"/>
    </contour>
    <contour>
      <point x="152" y="0" type="line"/>
      <point x="152" y="140" type="line"/>
      <point x="705" y="140" type="line"/>
      <point x="705" y="0" type="line"/>
    </contour>
    <contour>
      <point x="85" y="700" type="line"/>
      <point x="250" y="700" type="line"/>
      <point x="250" y="0" type="line"/>
      <point x="85" y="0" type="line"/>
    </contour>
  </outline>
</glyph>
<glyph name="M" format="2">
  <advance width="930"/>
  <unicode hex="004D"/>
  <anchor x="465" y="700" name="top"/>
  <anchor x="465" y="0" name="bottom"/>
  <outline>
    <contour>
      <point x="235" y="490" type="line"/>
      <point x="235" y="700" type="line"/>
      <point x="290" y="700" type="line"/>
      <point x="465" y="323" type="line"/>
      <point x="640" y="700" type="line"/>
      <point x="695" y="700" type="line"/>
      <point x="695" y="490" type="line"/>
      <point x="465" y="-10" type="line"/>
    </contour>
    <contour>
      <point x="675" y="0" type="line"/>
      <point x="675" y="15" type="line"/>
      <point x="865" y="15" type="line"/>
      <point x="865" y="0" type="line"/>
    </contour>
    <contour>
      <point x="615" y="685" type="line"/>
      <point x="615" y="700" type="line"/>
      <point x="865" y="700" type="line"/>
      <point x="865" y="685" type="line"/>
    </contour>
    <contour>
      <point x="695" y="700" type="line"/>
      <point x="845" y="700" type="line"/>
      <point x="845" y="0" type="line"/>
      <point x="695" y="0" type="line"/>
    </contour>
    <contour>
      <point x="65" y="0" type="line"/>
      <point x="65" y="15" type="line"/>
      <point x="255" y="15" type="line"/>
      <point x="255" y="0" type="line"/>
    </contour>
    <contour>
      <point x="65" y="685" type="line"/>
      <point x="65" y="700" type="line"/>
      <point x="315" y="700" type="line"/>
      <point x="315" y="685" type="line"/>
    </contour>
    <contour>
      <point x="85" y="700" type="line"/>
      <point x="235" y="700" type="line"/>
      <point x="235" y="0" type="line"/>
      <point x="85" y="0" type="line"/>
    </contour>
  </outline>
</glyph>
<glyph name="N" format="2">
  <advance width="870"/>
  <unicode hex="004E"/>
  <anchor x="474" y="700" name="top"/>
  <anchor x="424" y="0" name="bottom"/>
  <outline>
    <contour>
      <point x="233" y="500" type="line"/>
      <point x="235" y="700" type="line"/>
      <point x="265" y="700" type="line"/>
      <point x="635" y="248" type="line"/>
      <point x="625" y="15" type="line"/>
    </contour>
    <contour>
      <point x="595" y="0" type="line"/>
      <point x="595" y="15" type="line"/>
      <point x="805" y="15" type="line"/>
      <point x="805" y="0" type="line"/>
    </contour>
    <contour>
      <point x="615" y="685" type="line"/>
      <point x="615" y="700" type="line"/>
      <point x="805" y="700" type="line"/>
      <point x="805" y="685" type="line"/>
    </contour>
    <contour>
      <point x="635" y="700" type="line"/>
      <point x="785" y="700" type="line"/>
      <point x="785" y="0" type="line"/>
      <point x="625" y="15" type="line"/>
      <point x="635" y="248" type="line"/>
    </contour>
    <contour>
      <point x="65" y="0" type="line"/>
      <point x="65" y="15" type="line"/>
      <point x="255" y="15" type="line"/>
      <point x="255" y="0" type="line"/>
    </contour>
    <contour>
      <point x="65" y="685" type="line"/>
      <point x="65" y="700" type="line"/>
      <point x="305" y="700" type="line"/>
      <point x="305" y="685" type="line"/>
    </contour>
    <contour>
      <point x="85" y="700" type="line"/>
      <point x="235" y="700" type="line"/>
      <point x="235" y="0" type="line"/>
      <point x="85" y="0" type="line"/>
    </contour>
  </outline>
</glyph>
<glyph name="O" format="2">
  <advance width="910"/>
  <unicode hex="004F"/>
  <anchor x="455" y="700" name="top"/>
  <anchor x="455" y="0" name="bottom"/>
  <outline>
    <contour>
      <point x="215" y="350" type="curve" smooth="yes"/>
      <point x="215" y="206"/>
      <point x="322" y="130"/>
      <point x="455" y="130" type="curve" smooth="yes"/>
      <point x="588" y="130"/>
      <point x="695" y="206"/>
      <point x="695" y="350" type="curve" smooth="yes"/>
      <point x="695" y="494"/>
      <point x="588" y="570"/>
      <point x="455" y="570" type="curve" smooth="yes"/>
      <point x="322" y="570"/>
      <point x="215" y="494"/>
    </contour>
    <contour>
      <point x="50" y="350" type="curve" smooth="yes"/>
      <point x="50" y="584"/>
      <point x="236" y="710"/>
      <point x="455" y="710" type="curve" smooth="yes"/>
      <point x="674" y="710"/>
      <point x="860" y="584"/>
      <point x="860" y="350" type="curve" smooth="yes"/>
      <point x="860" y="116"/>
      <point x="674" y="-10"/>
      <point x="455" y="-10" type="curve" smooth="yes"/>
      <point x="236" y="-10"/>
      <point x="50" y="116"/>
    </contour>
  </outline>
</glyph>
<glyph name="P" format="2">
  <advance width="753"/>
  <unicode hex="0050"/>
  <anchor x="343" y="700" name="top"/>
  <anchor x="168" y="0" name="bottom"/>
  <outline>
    <contour>
      <point x="65" y="685" type="line"/>
      <point x="65" y="700" type="line"/>
      <point x="85" y="700" type="line"/>
      <point x="85" y="685" type="line"/>
    </contour>
    <contour>
      <point x="65" y="0" type="line"/>
      <point x="65" y="15" type="line"/>
      <point x="265" y="15" type="line"/>
      <point x="265" y="0" type="line"/>
    </contour>
    <contour>
      <point x="85" y="700" type="line"/>
      <point x="245" y="700" type="line"/>
      <point x="245" y="0" type="line"/>
      <point x="85" y="0" type="line"/>
    </contour>
    <contour>
      <point x="132" y="560" type="line"/>
      <point x="132" y="700" type="line"/>
      <point x="480" y="700" type="line" smooth="yes"/>
      <point x="605" y="700"/>
      <point x="718" y="654"/>
      <point x="718" y="480" type="curve" smooth="yes"/>
      <point x="718" y="307"/>
      <point x="605" y="260"/>
      <point x="480" y="260" type="curve" smooth="yes"/>
      <point x="132" y="260" type="line"/>
      <point x="132" y="400" type="line"/>
      <point x="470" y="400" type="line" smooth="yes"/>
      <point x="519" y="400"/>
      <point x="553" y="414"/>
      <point x="553" y="480" type="curve" smooth="yes"/>
      <point x="553" y="546"/>
      <point x="519" y="560"/>
      <point x="470" y="560" type="curve" smooth="yes"/>
    </contour>
  </outline>
</glyph>
<glyph name="Q" format="2">
  <advance width="870"/>
  <unicode hex="0051"/>
  <anchor x="435" y="700" name="top"/>
  <outline>
    <contour>
      <point x="50" y="350" type="curve" smooth="yes"/>
      <point x="50" y="574"/>
      <point x="216" y="710"/>
      <point x="435" y="710" type="curve" smooth="yes"/>
      <point x="654" y="710"/>
      <point x="820" y="574"/>
      <point x="820" y="350" type="curve" smooth="yes"/>
      <point x="820" y="126"/>
      <point x="654" y="-10"/>
      <point x="435" y="-10" type="curve" smooth="yes"/>
      <point x="216" y="-10"/>
      <point x="50" y="126"/>
    </contour>
    <contour>
      <point x="215" y="350" type="curve" smooth="yes"/>
      <point x="215" y="206"/>
      <point x="292" y="125"/>
      <point x="435" y="125" type="curve" smooth="yes"/>
      <point x="578" y="125"/>
      <point x="655" y="206"/>
      <point x="655" y="350" type="curve" smooth="yes"/>
      <point x="655" y="494"/>
      <point x="578" y="575"/>
      <point x="435" y="575" type="curve" smooth="yes"/>
      <point x="292" y="575"/>
      <point x="215" y="494"/>
    </contour>
    <contour>
      <point x="766" y="2" type="line"/>
      <point x="774" y="-6" type="line"/>
      <point x="658" y="-117" type="line"/>
      <point x="650" y="-109" type="line"/>
    </contour>
    <contour>
      <point x="426" y="232" type="curve" smooth="yes"/>
      <point x="586" y="232"/>
      <point x="593" y="0"/>
      <point x="763" y="-10" type="curve"/>
      <point x="666" y="-101" type="line"/>
      <point x="513" y="-42"/>
      <point x="480" y="175"/>
      <point x="380" y="175" type="curve" smooth="yes"/>
      <point x="351" y="175"/>
      <point x="326" y="162"/>
      <point x="326" y="127" type="curve"/>
      <point x="311" y="127" type="line"/>
      <point x="311" y="177"/>
      <point x="351" y="232"/>
    </contour>
  </outline>
</glyph>
<glyph name="R" format="2">
  <advance width="785"/>
  <unicode hex="0052"/>
  <anchor x="363" y="700" name="top"/>
  <anchor x="398" y="0" name="bottom"/>
  <anchor x="163" y="0" name="cedilla"/>
  <outline>
    <contour>
      <point x="65" y="685" type="line"/>
      <point x="65" y="700" type="line"/>
      <point x="85" y="700" type="line"/>
      <point x="85" y="685" type="line"/>
    </contour>
    <contour>
      <point x="65" y="0" type="line"/>
      <point x="65" y="15" type="line"/>
      <point x="265" y="15" type="line"/>
      <point x="265" y="0" type="line"/>
    </contour>
    <contour>
      <point x="85" y="700" type="line"/>
      <point x="245" y="700" type="line"/>
      <point x="245" y="0" type="line"/>
      <point x="85" y="0" type="line"/>
    </contour>
    <contour>
      <point x="132" y="560" type="line"/>
      <point x="132" y="700" type="line"/>
      <point x="505" y="700" type="line" smooth="yes"/>
      <point x="630" y="700"/>
      <point x="743" y="644"/>
      <point x="743" y="490" type="curve" smooth="yes"/>
      <point x="743" y="337"/>
      <point x="630" y="295"/>
      <point x="505" y="295" type="curve" smooth="yes"/>
      <point x="132" y="295" type="line"/>
      <point x="132" y="420" type="line"/>
      <point x="495" y="420" type="line" smooth="yes"/>
      <point x="559" y="420"/>
      <point x="588" y="444"/>
      <point x="588" y="490" type="curve" smooth="yes"/>
      <point x="588" y="536"/>
      <point x="559" y="560"/>
      <point x="495" y="560" type="curve" smooth="yes"/>
    </contour>
    <contour>
      <point x="525" y="0" type="line"/>
      <point x="525" y="15" type="line"/>
      <point x="770" y="15" type="line"/>
      <point x="770" y="0" type="line"/>
    </contour>
    <contour>
      <point x="345" y="360" type="line"/>
      <point x="505" y="360" type="line"/>
      <point x="760" y="0" type="line"/>
      <point x="555" y="0" type="line"/>
    </contour>
  </outline>
</glyph>
<glyph name="S" format="2">
  <advance width="764"/>
  <unicode hex="0053"/>
  <anchor x="390" y="700" name="top"/>
  <anchor x="410" y="0" name="bottom"/>
  <anchor x="410" y="0" name="cedilla"/>
  <outline>
    <contour>
      <point x="100" y="237" type="line"/>
      <point x="113" y="229" type="line"/>
      <point x="43" y="63" type="line"/>
      <point x="30" y="71" type="line"/>
    </contour>
    <contour>
      <point x="703" y="649" type="line"/>
      <point x="716" y="641" type="line"/>
      <point x="631" y="502" type="line"/>
      <point x="618" y="510" type="line"/>
    </contour>
    <contour>
      <point x="98" y="219" type="line"/>
      <point x="164" y="175"/>
      <point x="251" y="133"/>
      <point x="395" y="133" type="curve" smooth="yes"/>
      <point x="520" y="133"/>
      <point x="581" y="156"/>
      <point x="581" y="211" type="curve" smooth="yes"/>
      <point x="581" y="266"/>
      <point x="518.918" y="283.311"/>
      <point x="369" y="295" type="curve" smooth="yes"/>
      <point x="155.213" y="311.67"/>
      <point x="62" y="374"/>
      <point x="62" y="501" type="curve" smooth="yes"/>
      <point x="62" y="655"/>
      <point x="211" y="720"/>
      <point x="390" y="720" type="curve" smooth="yes"/>
      <point x="543" y="720"/>
      <point x="638" y="679"/>
      <point x="703" y="635" type="curve"/>
      <point x="631" y="521" type="line"/>
      <point x="584" y="551"/>
      <point x="492" y="580"/>
      <point x="380" y="580" type="curve" smooth="yes"/>
      <point x="274" y="580"/>
      <point x="222" y="550"/>
      <point x="222" y="508" type="curve" smooth="yes"/>
      <point x="222" y="452"/>
      <point x="278.201" y="438.491"/>
      <point x="438" y="426" type="curve" smooth="yes"/>
      <point x="641.59" y="410.086"/>
      <point x="734" y="352"/>
      <point x="734" y="210" type="curve" smooth="yes"/>
      <point x="734" y="62"/>
      <point x="590.586" y="-12.8975"/>
      <point x="390" y="-10" type="curve" smooth="yes"/>
      <point x="215.659" y="-7.48145"/>
      <point x="105" y="37.1396"/>
      <point x="50" y="82" type="curve"/>
    </contour>
  </outline>
</glyph>
<glyph name="T" format="2">
  <advance width="705"/>
  <unicode hex="0054"/>
  <anchor x="361" y="700" name="top"/>
  <anchor x="364" y="0" name="bottom"/>
  <anchor x="364" y="0" name="cedilla"/>
  <outline>
    <contour>
      <point x="10" y="715" type="line"/>
      <point x="25" y="715" type="line"/>
      <point x="25" y="540" type="line"/>
      <point x="10" y="540" type="line"/>
    </contour>
    <contour>
      <point x="680" y="715" type="line"/>
      <point x="695" y="715" type="line"/>
      <point x="695" y="540" type="line"/>
      <point x="680" y="540" type="line"/>
    </contour>
    <contour>
      <point x="10" y="565" type="line"/>
      <point x="10" y="700" type="line"/>
      <point x="695" y="700" type="line"/>
      <point x="695" y="565" type="line"/>
    </contour>
    <contour>
      <point x="245" y="0" type="line"/>
      <point x="245" y="15" type="line"/>
      <point x="460" y="15" type="line"/>
      <point x="460" y="0" type="line"/>
    </contour>
    <contour>
      <point x="275" y="700" type="line"/>
      <point x="430" y="700" type="line"/>
      <point x="430" y="0" type="line"/>
      <point x="275" y="0" type="line"/>
    </contour>
  </outline>
</glyph>
<glyph name="U" format="2">
  <advance width="810"/>
  <unicode hex="0055"/>
  <anchor x="415" y="700" name="top"/>
  <anchor x="405" y="0" name="bottom"/>
  <anchor x="405" y="0" name="cedilla"/>
  <outline>
    <contour>
      <point x="560" y="685" type="line"/>
      <point x="560" y="700" type="line"/>
      <point x="755" y="700" type="line"/>
      <point x="755" y="685" type="line"/>
    </contour>
    <contour>
      <point x="55" y="685" type="line"/>
      <point x="55" y="700" type="line"/>
      <point x="250" y="700" type="line"/>
      <point x="250" y="685" type="line"/>
    </contour>
    <contour>
      <point x="75" y="700" type="line"/>
      <point x="230" y="700" type="line"/>
      <point x="230" y="242" type="line" smooth="yes"/>
      <point x="230" y="156"/>
      <point x="295" y="120"/>
      <point x="405" y="120" type="curve" smooth="yes"/>
      <point x="525" y="120"/>
      <point x="580" y="156"/>
      <point x="580" y="242" type="curve" smooth="yes"/>
      <point x="580" y="700" type="line"/>
      <point x="735" y="700" type="line"/>
      <point x="735" y="230" type="line" smooth="yes"/>
      <point x="735" y="61"/>
      <point x="580" y="-10"/>
      <point x="405" y="-10" type="curve" smooth="yes"/>
      <point x="230" y="-10"/>
      <point x="75" y="61"/>
      <point x="75" y="230" type="curve" smooth="yes"/>
    </contour>
  </outline>
</glyph>
<glyph name="V" format="2">
  <advance width="794"/>
  <unicode hex="0056"/>
  <anchor x="419" y="700" name="top"/>
  <anchor x="397" y="0" name="bottom"/>
  <outline>
    <contour>
      <point x="519" y="15" type="line"/>
      <point x="519" y="0" type="line"/>
      <point x="275" y="0" type="line"/>
      <point x="275" y="15" type="line"/>
    </contour>
    <contour>
      <point x="207" y="700" type="line"/>
      <point x="207" y="685" type="line"/>
      <point x="0" y="685" type="line"/>
      <point x="0" y="700" type="line"/>
    </contour>
    <contour>
      <point x="794" y="700" type="line"/>
      <point x="794" y="685" type="line"/>
      <point x="587" y="685" type="line"/>
      <point x="587" y="700" type="line"/>
    </contour>
    <contour>
      <point x="397" y="139" type="line"/>
      <point x="612" y="700" type="line"/>
      <point x="784" y="700" type="line"/>
      <point x="499" y="0" type="line"/>
      <point x="295" y="0" type="line"/>
      <point x="10" y="700" type="line"/>
      <point x="182" y="700" type="line"/>
    </contour>
  </outline>
</glyph>
<glyph name="W" format="2">
  <advance width="1140"/>
  <unicode hex="0057"/>
  <anchor x="548" y="700" name="top"/>
  <anchor x="528" y="0" name="bottom"/>
  <outline>
    <contour>
      <point x="895" y="15" type="line"/>
      <point x="895" y="0" type="line"/>
      <point x="705" y="0" type="line"/>
      <point x="705" y="15" type="line"/>
    </contour>
    <contour>
      <point x="1135" y="700" type="line"/>
      <point x="1135" y="685" type="line"/>
      <point x="925" y="685" type="line"/>
      <point x="925" y="700" type="line"/>
    </contour>
    <contour>
      <point x="790" y="221" type="line"/>
      <point x="950" y="700" type="line"/>
      <point x="1125" y="700" type="line"/>
      <point x="875" y="0" type="line"/>
      <point x="725" y="0" type="line"/>
      <point x="525" y="620" type="line"/>
      <point x="495" y="700" type="line"/>
      <point x="645" y="700" type="line"/>
    </contour>
    <contour>
      <point x="435" y="15" type="line"/>
      <point x="435" y="0" type="line"/>
      <point x="245" y="0" type="line"/>
      <point x="245" y="15" type="line"/>
    </contour>
    <contour>
      <point x="215" y="700" type="line"/>
      <point x="215" y="685" type="line"/>
      <point x="5" y="685" type="line"/>
      <point x="5" y="700" type="line"/>
    </contour>
    <contour>
      <point x="670" y="700" type="line"/>
      <point x="670" y="685" type="line"/>
      <point x="470" y="685" type="line"/>
      <point x="470" y="700" type="line"/>
    </contour>
    <contour>
      <point x="350" y="231" type="line"/>
      <point x="495" y="700" type="line"/>
      <point x="645" y="700" type="line"/>
      <point x="615" y="620" type="line"/>
      <point x="415" y="0" type="line"/>
      <point x="265" y="0" type="line"/>
      <point x="15" y="700" type="line"/>
      <point x="190" y="700" type="line"/>
    </contour>
  </outline>
</glyph>
<glyph name="X" format="2">
  <advance width="685"/>
  <unicode hex="0058"/>
  <anchor x="358" y="700" name="top"/>
  <anchor x="363" y="0" name="bottom"/>
  <outline>
    <contour>
      <point x="685" y="15" type="line"/>
      <point x="685" y="0" type="line"/>
      <point x="470" y="0" type="line"/>
      <point x="470" y="15" type="line"/>
    </contour>
    <contour>
      <point x="215" y="15" type="line"/>
      <point x="215" y="0" type="line"/>
      <point x="0" y="0" type="line"/>
      <point x="0" y="15" type="line"/>
    </contour>
    <contour>
      <point x="680" y="700" type="line"/>
      <point x="680" y="685" type="line"/>
      <point x="465" y="685" type="line"/>
      <point x="465" y="700" type="line"/>
    </contour>
    <contour>
      <point x="230" y="700" type="line"/>
      <point x="230" y="685" type="line"/>
      <point x="15" y="685" type="line"/>
      <point x="15" y="700" type="line"/>
    </contour>
    <contour>
      <point x="495" y="700" type="line"/>
      <point x="675" y="700" type="line"/>
      <point x="443" y="362" type="line"/>
      <point x="680" y="0" type="line"/>
      <point x="500" y="0" type="line"/>
      <point x="345" y="250" type="line"/>
      <point x="185" y="0" type="line"/>
      <point x="5" y="0" type="line"/>
      <point x="248" y="362" type="line"/>
      <point x="20" y="700" type="line"/>
      <point x="200" y="700" type="line"/>
      <point x="346" y="464" type="line"/>
    </contour>
  </outline>
</glyph>
<glyph name="Y" format="2">
  <advance width="701"/>
  <unicode hex="0059"/>
  <anchor x="330" y="700" name="top"/>
  <anchor x="345" y="0" name="bottom"/>
  <outline>
    <contour>
      <point x="711" y="700" type="line"/>
      <point x="711" y="685" type="line"/>
      <point x="496" y="685" type="line"/>
      <point x="496" y="700" type="line"/>
    </contour>
    <contour>
      <point x="205" y="700" type="line"/>
      <point x="205" y="685" type="line"/>
      <point x="-10" y="685" type="line"/>
      <point x="-10" y="700" type="line"/>
    </contour>
    <contour>
      <point x="236" y="0" type="line"/>
      <point x="236" y="15" type="line"/>
      <point x="460" y="15" type="line"/>
      <point x="460" y="0" type="line"/>
    </contour>
    <contour>
      <point x="531" y="700" type="line"/>
      <point x="706" y="700" type="line"/>
      <point x="430" y="272" type="line"/>
      <point x="430" y="0" type="line"/>
      <point x="266" y="0" type="line"/>
      <point x="266" y="271" type="line"/>
      <point x="-5" y="700" type="line"/>
      <point x="175" y="700" type="line"/>
      <point x="348" y="396" type="line"/>
    </contour>
  </outline>
</glyph>
<glyph name="Z" format="2">
  <advance width="744"/>
  <unicode hex="005A"/>
  <anchor x="358" y="700" name="top"/>
  <anchor x="393" y="0" name="bottom"/>
  <outline>
    <contour>
      <point x="670" y="165" type="line"/>
      <point x="685" y="165" type="line"/>
      <point x="685" y="-15" type="line"/>
      <point x="670" y="-15" type="line"/>
    </contour>
    <contour>
      <point x="40" y="715" type="line"/>
      <point x="55" y="715" type="line"/>
      <point x="55" y="535" type="line"/>
      <point x="40" y="535" type="line"/>
    </contour>
    <contour>
      <point x="40" y="560" type="line"/>
      <point x="40" y="700" type="line"/>
      <point x="699" y="700" type="line"/>
      <point x="699" y="685" type="line"/>
      <point x="300" y="140" type="line"/>
      <point x="685" y="140" type="line"/>
      <point x="685" y="0" type="line"/>
      <point x="30" y="0" type="line"/>
      <point x="30" y="15" type="line"/>
      <point x="432" y="560" type="line"/>
    </contour>
  </outline>
</glyph>
<glyph name="bracketleft" format="2">
  <advance width="371"/>
  <unicode hex="005B"/>
  <outline>
    <contour>
      <point x="80" y="-220" type="line"/>
      <point x="80" y="-205" type="line"/>
      <point x="100" y="-205" type="line"/>
      <point x="100" y="-220" type="line"/>
    </contour>
    <contour>
      <point x="80" y="765" type="line"/>
      <point x="80" y="780" type="line"/>
      <point x="100" y="780" type="line"/>
      <point x="100" y="765" type="line"/>
    </contour>
    <contour>
      <point x="336" y="-60" type="line"/>
      <point x="351" y="-60" type="line"/>
      <point x="351" y="-240" type="line"/>
      <point x="336" y="-240" type="line"/>
    </contour>
    <contour>
      <point x="336" y="800" type="line"/>
      <point x="351" y="800" type="line"/>
      <point x="351" y="620" type="line"/>
      <point x="336" y="620" type="line"/>
    </contour>
    <contour>
      <point x="250" y="640" type="line"/>
      <point x="250" y="-80" type="line"/>
      <point x="351" y="-80" type="line"/>
      <point x="351" y="-220" type="line"/>
      <point x="100" y="-220" type="line"/>
      <point x="100" y="780" type="line"/>
      <point x="351" y="780" type="line"/>
      <point x="351" y="640" type="line"/>
    </contour>
  </outline>
</glyph>
<glyph name="backslash" format="2">
  <advance width="665"/>
  <unicode hex="005C"/>
  <outline>
    <contour>
      <point x="630" y="15" type="line"/>
      <point x="630" y="0" type="line"/>
      <point x="410" y="0" type="line"/>
      <point x="410" y="15" type="line"/>
    </contour>
    <contour>
      <point x="255" y="700" type="line"/>
      <point x="255" y="685" type="line"/>
      <point x="35" y="685" type="line"/>
      <point x="35" y="700" type="line"/>
    </contour>
    <contour>
      <point x="55" y="700" type="line"/>
      <point x="215" y="700" type="line"/>
      <point x="610" y="0" type="line"/>
      <point x="450" y="0" type="line"/>
    </contour>
  </outline>
</glyph>
<glyph name="bracketright" format="2">
  <advance width="371"/>
  <unicode hex="005D"/>
  <outline>
    <contour>
      <point x="291" y="780" type="line"/>
      <point x="291" y="765" type="line"/>
      <point x="271" y="765" type="line"/>
      <point x="271" y="780" type="line"/>
    </contour>
    <contour>
      <point x="291" y="-205" type="line"/>
      <point x="291" y="-220" type="line"/>
      <point x="271" y="-220" type="line"/>
      <point x="271" y="-205" type="line"/>
    </contour>
    <contour>
      <point x="35" y="620" type="line"/>
      <point x="20" y="620" type="line"/>
      <point x="20" y="800" type="line"/>
      <point x="35" y="800" type="line"/>
    </contour>
    <contour>
      <point x="35" y="-240" type="line"/>
      <point x="20" y="-240" type="line"/>
      <point x="20" y="-70" type="line"/>
      <point x="35" y="-70" type="line"/>
    </contour>
    <contour>
      <point x="121" y="-90" type="line"/>
      <point x="121" y="640" type="line"/>
      <point x="20" y="640" type="line"/>
      <point x="20" y="780" type="line"/>
      <point x="271" y="780" type="line"/>
      <point x="271" y="-220" type="line"/>
      <point x="20" y="-220" type="line"/>
      <point x="20" y="-90" type="line"/>
    </contour>
  </outline>
</glyph>
<glyph name="asciicircum" format="2">
  <advance width="610"/>
  <unicode hex="005E"/>
  <outline>
    <contour>
      <point x="575" y="475" type="line"/>
      <point x="575" y="460" type="line"/>
      <point x="375" y="460" type="line"/>
      <point x="375" y="475" type="line"/>
    </contour>
    <contour>
      <point x="235" y="475" type="line"/>
      <point x="235" y="460" type="line"/>
      <point x="35" y="460" type="line"/>
      <point x="35" y="475" type="line"/>
    </contour>
    <contour>
      <point x="415" y="710" type="line"/>
      <point x="415" y="695" type="line"/>
      <point x="195" y="695" type="line"/>
      <point x="195" y="710" type="line"/>
    </contour>
    <contour>
      <point x="305" y="601" type="line"/>
      <point x="205" y="460" type="line"/>
      <point x="45" y="460" type="line"/>
      <point x="225" y="710" type="line"/>
      <point x="385" y="710" type="line"/>
      <point x="565" y="460" type="line"/>
      <point x="405" y="460" type="line"/>
    </contour>
  </outline>
</glyph>
<glyph name="grave" format="2">
  <advance width="375"/>
  <unicode hex="0060"/>
  <outline>
    <contour>
      <point x="337" y="590" type="line"/>
      <point x="347" y="579" type="line"/>
      <point x="231" y="481" type="line"/>
      <point x="221" y="492" type="line"/>
    </contour>
    <contour>
      <point x="186" y="750" type="line"/>
      <point x="196" y="739" type="line"/>
      <point x="58" y="630" type="line"/>
      <point x="48" y="641" type="line"/>
    </contour>
    <contour>
      <point x="61" y="646" type="line"/>
      <point x="180" y="735" type="line"/>
      <point x="330" y="575" type="line"/>
      <point x="241" y="496" type="line"/>
    </contour>
  </outline>
</glyph>
<glyph name="braceleft" format="2">
  <advance width="381"/>
  <unicode hex="007B"/>
  <outline>
    <contour>
      <point x="35" y="395" type="line"/>
      <point x="50" y="395" type="line"/>
      <point x="50" y="195" type="line"/>
      <point x="35" y="195" type="line"/>
    </contour>
    <contour>
      <point x="316" y="-50" type="line"/>
      <point x="331" y="-50" type="line"/>
      <point x="331" y="-220" type="line"/>
      <point x="316" y="-220" type="line"/>
    </contour>
    <contour>
      <point x="316" y="800" type="line"/>
      <point x="331" y="800" type="line"/>
      <point x="331" y="630" type="line"/>
      <point x="316" y="630" type="line"/>
    </contour>
    <contour>
      <point x="248" y="600" type="curve" smooth="yes"/>
      <point x="248" y="490" type="line" smooth="yes"/>
      <point x="248" y="371"/>
      <point x="174" y="260"/>
      <point x="65" y="260" type="curve"/>
      <point x="65" y="320" type="line"/>
      <point x="174" y="320"/>
      <point x="248" y="209"/>
      <point x="248" y="90" type="curve" smooth="yes"/>
      <point x="248" y="-20" type="line" smooth="yes"/>
      <point x="248" y="-46"/>
      <point x="266" y="-70"/>
      <point x="296" y="-70" type="curve" smooth="yes"/>
      <point x="331" y="-70" type="line"/>
      <point x="331" y="-200" type="line"/>
      <point x="271" y="-200" type="line" smooth="yes"/>
      <point x="187" y="-200"/>
      <point x="98" y="-159"/>
      <point x="98" y="-60" type="curve" smooth="yes"/>
      <point x="98" y="120" type="line" smooth="yes"/>
      <point x="98" y="186"/>
      <point x="80" y="205"/>
      <point x="50" y="215" type="curve"/>
      <point x="50" y="375" type="line"/>
      <point x="80" y="385"/>
      <point x="98" y="404"/>
      <point x="98" y="470" type="curve" smooth="yes"/>
      <point x="98" y="640" type="line" smooth="yes"/>
      <point x="98" y="739"/>
      <point x="187" y="780"/>
      <point x="271" y="780" type="curve" smooth="yes"/>
      <point x="331" y="780" type="line"/>
      <point x="331" y="650" type="line"/>
      <point x="296" y="650" type="line" smooth="yes"/>
      <point x="266" y="650"/>
      <point x="248" y="626"/>
    </contour>
  </outline>
</glyph>
<glyph name="bar" format="2">
  <advance width="344"/>
  <unicode hex="007C"/>
  <outline>
    <contour>
      <point x="80" y="-220" type="line"/>
      <point x="80" y="-205" type="line"/>
      <point x="264" y="-205" type="line"/>
      <point x="264" y="-220" type="line"/>
    </contour>
    <contour>
      <point x="80" y="765" type="line"/>
      <point x="80" y="780" type="line"/>
      <point x="264" y="780" type="line"/>
      <point x="264" y="765" type="line"/>
    </contour>
    <contour>
      <point x="100" y="780" type="line"/>
      <point x="244" y="780" type="line"/>
      <point x="244" y="-220" type="line"/>
      <point x="100" y="-220" type="line"/>
    </contour>
  </outline>
</glyph>
<glyph name="braceright" format="2">
  <advance width="381"/>
  <unicode hex="007D"/>
  <outline>
    <contour>
      <point x="346" y="185" type="line"/>
      <point x="331" y="185" type="line"/>
      <point x="331" y="385" type="line"/>
      <point x="346" y="385" type="line"/>
    </contour>
    <contour>
      <point x="65" y="630" type="line"/>
      <point x="50" y="630" type="line"/>
      <point x="50" y="800" type="line"/>
      <point x="65" y="800" type="line"/>
    </contour>
    <contour>
      <point x="65" y="-220" type="line"/>
      <point x="50" y="-220" type="line"/>
      <point x="50" y="-50" type="line"/>
      <point x="65" y="-50" type="line"/>
    </contour>
    <contour>
      <point x="133" y="-20" type="curve" smooth="yes"/>
      <point x="133" y="90" type="line" smooth="yes"/>
      <point x="133" y="209"/>
      <point x="207" y="320"/>
      <point x="316" y="320" type="curve"/>
      <point x="316" y="260" type="line"/>
      <point x="207" y="260"/>
      <point x="133" y="371"/>
      <point x="133" y="490" type="curve" smooth="yes"/>
      <point x="133" y="600" type="line" smooth="yes"/>
      <point x="133" y="626"/>
      <point x="115" y="650"/>
      <point x="85" y="650" type="curve" smooth="yes"/>
      <point x="50" y="650" type="line"/>
      <point x="50" y="780" type="line"/>
      <point x="110" y="780" type="line" smooth="yes"/>
      <point x="194" y="780"/>
      <point x="283" y="739"/>
      <point x="283" y="640" type="curve" smooth="yes"/>
      <point x="283" y="460" type="line" smooth="yes"/>
      <point x="283" y="394"/>
      <point x="301" y="375"/>
      <point x="331" y="365" type="curve"/>
      <point x="331" y="205" type="line"/>
      <point x="301" y="195"/>
      <point x="283" y="176"/>
      <point x="283" y="110" type="curve" smooth="yes"/>
      <point x="283" y="-60" type="line" smooth="yes"/>
      <point x="283" y="-159"/>
      <point x="194" y="-200"/>
      <point x="110" y="-200" type="curve" smooth="yes"/>
      <point x="50" y="-200" type="line"/>
      <point x="50" y="-70" type="line"/>
      <point x="85" y="-70" type="line" smooth="yes"/>
      <point x="115" y="-70"/>
      <point x="133" y="-46"/>
    </contour>
  </outline>
</glyph>
<glyph name="asciitilde" format="2">
  <advance width="595"/>
  <unicode hex="007E"/>
  <outline>
    <contour>
      <point x="378" y="312" type="line"/>
      <point x="378" y="327" type="line"/>
      <point x="552" y="327" type="line"/>
      <point x="552" y="312" type="line"/>
    </contour>
    <contour>
      <point x="40" y="170" type="line"/>
      <point x="40" y="185" type="line"/>
      <point x="214" y="185" type="line"/>
      <point x="214" y="170" type="line"/>
    </contour>
    <contour>
      <point x="197" y="176" type="curve"/>
      <point x="63" y="181" type="line"/>
      <point x="61" y="188"/>
      <point x="60" y="206"/>
      <point x="60" y="215" type="curve" smooth="yes"/>
      <point x="60" y="236"/>
      <point x="66" y="271"/>
      <point x="84" y="295" type="curve" smooth="yes"/>
      <point x="110" y="330"/>
      <point x="137" y="347"/>
      <point x="189" y="347" type="curve" smooth="yes"/>
      <point x="238" y="347"/>
      <point x="270.41" y="328.848"/>
      <point x="307" y="304" type="curve" smooth="yes"/>
      <point x="335.128" y="284.898"/>
      <point x="352" y="277"/>
      <point x="370" y="277" type="curve" smooth="yes"/>
      <point x="394" y="277"/>
      <point x="402" y="284"/>
      <point x="402" y="301" type="curve" smooth="yes"/>
      <point x="402" y="309"/>
      <point x="399" y="313"/>
      <point x="395" y="323" type="curve"/>
      <point x="531" y="318" type="line"/>
      <point x="533" y="310"/>
      <point x="535" y="290"/>
      <point x="535" y="280" type="curve" smooth="yes"/>
      <point x="535" y="260"/>
      <point x="530" y="222"/>
      <point x="513" y="199" type="curve" smooth="yes"/>
      <point x="487" y="165"/>
      <point x="465" y="152"/>
      <point x="419" y="152" type="curve" smooth="yes"/>
      <point x="375" y="152"/>
      <point x="332" y="174"/>
      <point x="299" y="195" type="curve" smooth="yes"/>
      <point x="267.108" y="215.295"/>
      <point x="238" y="228"/>
      <point x="223" y="228" type="curve" smooth="yes"/>
      <point x="202" y="228"/>
      <point x="188" y="218"/>
      <point x="188" y="203" type="curve" smooth="yes"/>
      <point x="188" y="196"/>
      <point x="191" y="184"/>
    </contour>
  </outline>
</glyph>
<glyph name="cent" format="2">
  <advance width="845"/>
  <unicode hex="00A2"/>
  <outline>
    <contour>
      <point x="465" y="740" type="line"/>
      <point x="505" y="740" type="line"/>
      <point x="505" y="-80" type="line"/>
      <point x="465" y="-80" type="line"/>
    </contour>
    <contour>
      <point x="325" y="740" type="line"/>
      <point x="365" y="740" type="line"/>
      <point x="365" y="-80" type="line"/>
      <point x="325" y="-80" type="line"/>
    </contour>
    <contour>
      <point x="638" y="246" type="line"/>
      <point x="745" y="106" type="line"/>
      <point x="732" y="98" type="line"/>
      <point x="625" y="238" type="line"/>
    </contour>
    <contour>
      <point x="710" y="619" type="line"/>
      <point x="723" y="611" type="line"/>
      <point x="617" y="469" type="line"/>
      <point x="604" y="477" type="line"/>
    </contour>
    <contour>
      <point x="205" y="350" type="curve" smooth="yes"/>
      <point x="205" y="212"/>
      <point x="277" y="130"/>
      <point x="425" y="130" type="curve" smooth="yes"/>
      <point x="514" y="130"/>
      <point x="579" y="180"/>
      <point x="638" y="232" type="curve"/>
      <point x="730" y="115" type="line"/>
      <point x="661" y="63"/>
      <point x="587" y="-10"/>
      <point x="425" y="-10" type="curve" smooth="yes"/>
      <point x="182" y="-10"/>
      <point x="40" y="136"/>
      <point x="40" y="350" type="curve" smooth="yes"/>
      <point x="40" y="564"/>
      <point x="182" y="710"/>
      <point x="425" y="710" type="curve" smooth="yes"/>
      <point x="587" y="710"/>
      <point x="651" y="647"/>
      <point x="710" y="605" type="curve"/>
      <point x="619" y="486" type="line"/>
      <point x="570" y="528"/>
      <point x="514" y="570"/>
      <point x="425" y="570" type="curve" smooth="yes"/>
      <point x="277" y="570"/>
      <point x="205" y="488"/>
    </contour>
  </outline>
</glyph>
<glyph name="sterling" format="2">
  <advance width="756"/>
  <unicode hex="00A3"/>
  <outline>
    <contour>
      <point x="70" y="399" type="line"/>
      <point x="70" y="439" type="line"/>
      <point x="540" y="439" type="line"/>
      <point x="540" y="399" type="line"/>
    </contour>
    <contour>
      <point x="70" y="279" type="line"/>
      <point x="70" y="319" type="line"/>
      <point x="540" y="319" type="line"/>
      <point x="540" y="279" type="line"/>
    </contour>
    <contour>
      <point x="587" y="510" type="line"/>
      <point x="574" y="518" type="line"/>
      <point x="669" y="648" type="line"/>
      <point x="682" y="640" type="line"/>
    </contour>
    <contour>
      <point x="691" y="175" type="line"/>
      <point x="706" y="175" type="line"/>
      <point x="706" y="-15" type="line"/>
      <point x="691" y="-15" type="line"/>
    </contour>
    <contour>
      <point x="21" y="90" type="line"/>
      <point x="32" y="100" type="line"/>
      <point x="139" y="-25" type="line"/>
      <point x="128" y="-35" type="line"/>
    </contour>
    <contour>
      <point x="587" y="524" type="line"/>
      <point x="553" y="555"/>
      <point x="477" y="580"/>
      <point x="391" y="580" type="curve" smooth="yes"/>
      <point x="301" y="580"/>
      <point x="255" y="560"/>
      <point x="255" y="505" type="curve" smooth="yes"/>
      <point x="255" y="402"/>
      <point x="319" y="391"/>
      <point x="319" y="279" type="curve" smooth="yes"/>
      <point x="319" y="203"/>
      <point x="267" y="157"/>
      <point x="184" y="90" type="curve"/>
      <point x="169" y="100" type="line"/>
      <point x="230" y="131"/>
      <point x="231" y="187"/>
      <point x="317" y="187" type="curve" smooth="yes"/>
      <point x="443" y="187"/>
      <point x="456" y="127"/>
      <point x="573" y="127" type="curve" smooth="yes"/>
      <point x="608" y="127"/>
      <point x="665" y="136"/>
      <point x="706" y="150" type="curve"/>
      <point x="706" y="0" type="line"/>
      <point x="665" y="-14"/>
      <point x="598" y="-23"/>
      <point x="563" y="-23" type="curve" smooth="yes"/>
      <point x="426" y="-23"/>
      <point x="393" y="42"/>
      <point x="267" y="42" type="curve" smooth="yes"/>
      <point x="221" y="42"/>
      <point x="177" y="23"/>
      <point x="129" y="-15" type="curve"/>
      <point x="40" y="90" type="line"/>
      <point x="93" y="147"/>
      <point x="172" y="203"/>
      <point x="172" y="259" type="curve" smooth="yes"/>
      <point x="172" y="371"/>
      <point x="100" y="395"/>
      <point x="100" y="520" type="curve" smooth="yes"/>
      <point x="100" y="650"/>
      <point x="214" y="720"/>
      <point x="398" y="720" type="curve" smooth="yes"/>
      <point x="531" y="720"/>
      <point x="621" y="670"/>
      <point x="666" y="630" type="curve"/>
    </contour>
  </outline>
</glyph>
<glyph name="brokenbar" format="2">
  <advance width="344"/>
  <unicode hex="00A6"/>
  <outline>
    <contour>
      <point x="80" y="380" type="line"/>
      <point x="80" y="395" type="line"/>
      <point x="264" y="395" type="line"/>
      <point x="264" y="380" type="line"/>
    </contour>
    <contour>
      <point x="80" y="765" type="line"/>
      <point x="80" y="780" type="line"/>
      <point x="264" y="780" type="line"/>
      <point x="264" y="765" type="line"/>
    </contour>
    <contour>
      <point x="100" y="780" type="line"/>
      <point x="244" y="780" type="line"/>
      <point x="244" y="380" type="line"/>
      <point x="100" y="380" type="line"/>
    </contour>
    <contour>
      <point x="80" y="-220" type="line"/>
      <point x="80" y="-205" type="line"/>
      <point x="264" y="-205" type="line"/>
      <point x="264" y="-220" type="line"/>
    </contour>
    <contour>
      <point x="80" y="165" type="line"/>
      <point x="80" y="180" type="line"/>
      <point x="264" y="180" type="line"/>
      <point x="264" y="165" type="line"/>
    </contour>
    <contour>
      <point x="100" y="180" type="line"/>
      <point x="244" y="180" type="line"/>
      <point x="244" y="-220" type="line"/>
      <point x="100" y="-220" type="line"/>
    </contour>
  </outline>
</glyph>
<glyph name="guillemotleft" format="2">
  <advance width="582"/>
  <unicode hex="00AB"/>
  <outline>
    <contour>
      <point x="451" y="4" type="line"/>
      <point x="559" y="95" type="line"/>
      <point x="567" y="86" type="line"/>
      <point x="459" y="-5" type="line"/>
    </contour>
    <contour>
      <point x="213" y="4" type="line"/>
      <point x="321" y="95" type="line"/>
      <point x="329" y="86" type="line"/>
      <point x="221" y="-5" type="line"/>
    </contour>
    <contour>
      <point x="451" y="506" type="line"/>
      <point x="459" y="515" type="line"/>
      <point x="567" y="424" type="line"/>
      <point x="559" y="415" type="line"/>
    </contour>
    <contour>
      <point x="213" y="506" type="line"/>
      <point x="221" y="515" type="line"/>
      <point x="329" y="424" type="line"/>
      <point x="321" y="415" type="line"/>
    </contour>
    <contour>
      <point x="418" y="259" type="line"/>
      <point x="548" y="85" type="line"/>
      <point x="461" y="12" type="line"/>
      <point x="275" y="255" type="line"/>
      <point x="461" y="498" type="line"/>
      <point x="548" y="425" type="line"/>
    </contour>
    <contour>
      <point x="181" y="259" type="line"/>
      <point x="311" y="85" type="line"/>
      <point x="223" y="12" type="line"/>
      <point x="38" y="255" type="line"/>
      <point x="223" y="498" type="line"/>
      <point x="311" y="425" type="line"/>
    </contour>
  </outline>
</glyph>
<glyph name="logicalnot" format="2">
  <advance width="575"/>
  <unicode hex="00AC"/>
  <outline>
    <contour>
      <point x="516" y="600" type="line"/>
      <point x="516" y="615" type="line"/>
      <point x="536" y="615" type="line"/>
      <point x="536" y="600" type="line"/>
    </contour>
    <contour>
      <point x="356" y="373" type="line"/>
      <point x="356" y="388" type="line"/>
      <point x="536" y="388" type="line"/>
      <point x="536" y="373" type="line"/>
    </contour>
    <contour>
      <point x="75" y="455" type="line"/>
      <point x="60" y="455" type="line"/>
      <point x="60" y="635" type="line"/>
      <point x="75" y="635" type="line"/>
    </contour>
    <contour>
      <point x="376" y="475" type="line"/>
      <point x="60" y="475" type="line"/>
      <point x="60" y="615" type="line"/>
      <point x="516" y="615" type="line"/>
      <point x="516" y="373" type="line"/>
      <point x="376" y="373" type="line"/>
    </contour>
  </outline>
</glyph>
<glyph name="registered" format="2">
  <advance width="930"/>
  <unicode hex="00AE"/>
  <outline>
    <contour>
      <point x="50" y="375" type="curve" smooth="yes"/>
      <point x="50" y="588"/>
      <point x="232" y="760"/>
      <point x="465" y="760" type="curve" smooth="yes"/>
      <point x="698" y="760"/>
      <point x="880" y="588"/>
      <point x="880" y="375" type="curve" smooth="yes"/>
      <point x="880" y="162"/>
      <point x="698" y="-10"/>
      <point x="465" y="-10" type="curve" smooth="yes"/>
      <point x="232" y="-10"/>
      <point x="50" y="162"/>
    </contour>
    <contour>
      <point x="87" y="375" type="curve" smooth="yes"/>
      <point x="87" y="181"/>
      <point x="251" y="26"/>
      <point x="465" y="26" type="curve" smooth="yes"/>
      <point x="679" y="26"/>
      <point x="843" y="181"/>
      <point x="843" y="375" type="curve" smooth="yes"/>
      <point x="843" y="569"/>
      <point x="679" y="724"/>
      <point x="465" y="724" type="curve" smooth="yes"/>
      <point x="251" y="724"/>
      <point x="87" y="569"/>
    </contour>
    <component base="R" xScale="0.6" yScale="0.6" xOffset="220" yOffset="174"/>
  </outline>
</glyph>
<glyph name="macron" format="2">
  <advance width="369"/>
  <unicode hex="00AF"/>
  <outline>
    <contour>
      <point x="20" y="500" type="line"/>
      <point x="34" y="500" type="line"/>
      <point x="34" y="370" type="line"/>
      <point x="20" y="370" type="line"/>
    </contour>
    <contour>
      <point x="334" y="500" type="line"/>
      <point x="349" y="500" type="line"/>
      <point x="349" y="370" type="line"/>
      <point x="334" y="370" type="line"/>
    </contour>
    <contour>
      <point x="20" y="385" type="line"/>
      <point x="20" y="485" type="line"/>
      <point x="349" y="485" type="line"/>
      <point x="349" y="385" type="line"/>
    </contour>
  </outline>
</glyph>
<glyph name="degree" format="2">
  <advance width="319"/>
  <unicode hex="00B0"/>
  <outline>
    <contour>
      <point x="40" y="680" type="curve" smooth="yes"/>
      <point x="40" y="746"/>
      <point x="94" y="800"/>
      <point x="160" y="800" type="curve" smooth="yes"/>
      <point x="226" y="800"/>
      <point x="280" y="746"/>
      <point x="280" y="680" type="curve" smooth="yes"/>
      <point x="280" y="614"/>
      <point x="226" y="560"/>
      <point x="160" y="560" type="curve" smooth="yes"/>
      <point x="94" y="560"/>
      <point x="40" y="614"/>
    </contour>
    <contour>
      <point x="114" y="680" type="curve" smooth="yes"/>
      <point x="114" y="653"/>
      <point x="133" y="635"/>
      <point x="160" y="635" type="curve" smooth="yes"/>
      <point x="187" y="635"/>
      <point x="205" y="653"/>
      <point x="205" y="680" type="curve" smooth="yes"/>
      <point x="205" y="707"/>
      <point x="187" y="725"/>
      <point x="160" y="725" type="curve" smooth="yes"/>
      <point x="133" y="725"/>
      <point x="114" y="707"/>
    </contour>
  </outline>
</glyph>
<glyph name="plusminus" format="2">
  <advance width="536"/>
  <unicode hex="00B1"/>
  <outline>
    <contour>
      <point x="20" y="185" type="line"/>
      <point x="35" y="185" type="line"/>
      <point x="35" y="15" type="line"/>
      <point x="20" y="15" type="line"/>
    </contour>
    <contour>
      <point x="500" y="185" type="line"/>
      <point x="515" y="185" type="line"/>
      <point x="515" y="15" type="line"/>
      <point x="500" y="15" type="line"/>
    </contour>
    <contour>
      <point x="20" y="30" type="line"/>
      <point x="20" y="170" type="line"/>
      <point x="515" y="170" type="line"/>
      <point x="515" y="30" type="line"/>
    </contour>
    <component base="plus" xOffset="-70" yOffset="210"/>
  </outline>
</glyph>
<glyph name="acute" format="2">
  <advance width="375"/>
  <unicode hex="00B4"/>
  <outline>
    <contour>
      <point x="38" y="590" type="line"/>
      <point x="154" y="492" type="line"/>
      <point x="144" y="481" type="line"/>
      <point x="28" y="579" type="line"/>
    </contour>
    <contour>
      <point x="189" y="750" type="line"/>
      <point x="327" y="641" type="line"/>
      <point x="317" y="630" type="line"/>
      <point x="179" y="739" type="line"/>
    </contour>
    <contour>
      <point x="314" y="646" type="line"/>
      <point x="134" y="496" type="line"/>
      <point x="45" y="575" type="line"/>
      <point x="195" y="735" type="line"/>
    </contour>
  </outline>
</glyph>
<glyph name="paragraph" format="2">
  <advance width="680"/>
  <unicode hex="00B6"/>
  <outline>
    <contour>
      <point x="405" y="580" type="line"/>
      <point x="405" y="700" type="line"/>
      <point x="475" y="700" type="line"/>
      <point x="475" y="580" type="line"/>
    </contour>
    <contour>
      <point x="595" y="685" type="line"/>
      <point x="595" y="700" type="line"/>
      <point x="615" y="700" type="line"/>
      <point x="615" y="685" type="line"/>
    </contour>
    <contour>
      <point x="455" y="-80" type="line"/>
      <point x="455" y="-65" type="line"/>
      <point x="615" y="-65" type="line"/>
      <point x="615" y="-80" type="line"/>
    </contour>
    <contour>
      <point x="265" y="-80" type="line"/>
      <point x="265" y="-65" type="line"/>
      <point x="425" y="-65" type="line"/>
      <point x="425" y="-80" type="line"/>
    </contour>
    <contour>
      <point x="595" y="700" type="line"/>
      <point x="595" y="-80" type="line"/>
      <point x="475" y="-80" type="line"/>
      <point x="475" y="700" type="line"/>
    </contour>
    <contour>
      <point x="405" y="700" type="line"/>
      <point x="405" y="-80" type="line"/>
      <point x="285" y="-80" type="line"/>
      <point x="285" y="700" type="line"/>
    </contour>
    <contour>
      <point x="285" y="240" type="line" smooth="yes"/>
      <point x="145" y="240"/>
      <point x="50" y="325"/>
      <point x="50" y="470" type="curve" smooth="yes"/>
      <point x="50" y="615"/>
      <point x="145" y="700"/>
      <point x="285" y="700" type="curve" smooth="yes"/>
      <point x="365" y="700" type="line"/>
      <point x="365" y="240" type="line"/>
    </contour>
  </outline>
</glyph>
<glyph name="cedilla" format="2">
  <advance width="549"/>
  <unicode hex="00B8"/>
  <anchor x="312" y="0" name="_cedilla"/>
  <outline>
    <contour>
      <point x="258" y="-168" type="curve" smooth="yes"/>
      <point x="258" y="-127"/>
      <point x="221" y="-114"/>
      <point x="176" y="-114" type="curve"/>
      <point x="266" y="6" type="line"/>
      <point x="310" y="6" type="line"/>
      <point x="250" y="-74" type="line"/>
      <point x="362" y="-77"/>
      <point x="409" y="-99"/>
      <point x="409" y="-155" type="curve" smooth="yes"/>
      <point x="409" y="-205"/>
      <point x="351" y="-254"/>
      <point x="190" y="-254" type="curve"/>
      <point x="190" y="-218" type="line"/>
      <point x="229" y="-218"/>
      <point x="258" y="-198"/>
    </contour>
  </outline>
</glyph>
<glyph name="guillemotright" format="2">
  <advance width="582"/>
  <unicode hex="00BB"/>
  <outline>
    <contour>
      <point x="131" y="506" type="line"/>
      <point x="23" y="415" type="line"/>
      <point x="15" y="424" type="line"/>
      <point x="123" y="515" type="line"/>
    </contour>
    <contour>
      <point x="369" y="506" type="line"/>
      <point x="261" y="415" type="line"/>
      <point x="253" y="424" type="line"/>
      <point x="361" y="515" type="line"/>
    </contour>
    <contour>
      <point x="131" y="4" type="line"/>
      <point x="123" y="-5" type="line"/>
      <point x="15" y="86" type="line"/>
      <point x="23" y="95" type="line"/>
    </contour>
    <contour>
      <point x="369" y="4" type="line"/>
      <point x="361" y="-5" type="line"/>
      <point x="253" y="86" type="line"/>
      <point x="261" y="95" type="line"/>
    </contour>
    <contour>
      <point x="164" y="251" type="line"/>
      <point x="34" y="425" type="line"/>
      <point x="121" y="498" type="line"/>
      <point x="307" y="255" type="line"/>
      <point x="121" y="12" type="line"/>
      <point x="34" y="85" type="line"/>
    </contour>
    <contour>
      <point x="401" y="251" type="line"/>
      <point x="271" y="425" type="line"/>
      <point x="359" y="498" type="line"/>
      <point x="544" y="255" type="line"/>
      <point x="359" y="12" type="line"/>
      <point x="271" y="85" type="line"/>
    </contour>
  </outline>
</glyph>
<glyph name="AE" format="2">
  <advance width="1196"/>
  <unicode hex="00C6"/>
  <outline>
    <contour>
      <point x="378" y="685" type="line"/>
      <point x="378" y="700" type="line"/>
      <point x="454" y="700" type="line"/>
      <point x="454" y="685" type="line"/>
    </contour>
    <contour>
      <point x="0" y="0" type="line"/>
      <point x="0" y="15" type="line"/>
      <point x="197" y="15" type="line"/>
      <point x="197" y="0" type="line"/>
    </contour>
    <contour>
      <point x="179" y="180" type="line"/>
      <point x="209" y="310" type="line"/>
      <point x="579" y="310" type="line"/>
      <point x="609" y="180" type="line"/>
    </contour>
    <contour>
      <point x="572" y="700" type="line"/>
      <point x="172" y="0" type="line"/>
      <point x="10" y="0" type="line"/>
      <point x="410" y="700" type="line"/>
    </contour>
    <contour>
      <point x="1136" y="170" type="line"/>
      <point x="1151" y="170" type="line"/>
      <point x="1151" y="-10" type="line"/>
      <point x="1136" y="-10" type="line"/>
    </contour>
    <contour>
      <point x="1136" y="715" type="line"/>
      <point x="1151" y="715" type="line"/>
      <point x="1151" y="535" type="line"/>
      <point x="1136" y="535" type="line"/>
    </contour>
    <contour>
      <point x="966" y="440" type="line"/>
      <point x="981" y="440" type="line"/>
      <point x="981" y="275" type="line"/>
      <point x="966" y="275" type="line"/>
    </contour>
    <contour>
      <point x="515" y="0" type="line"/>
      <point x="515" y="15" type="line"/>
      <point x="535" y="15" type="line"/>
      <point x="535" y="0" type="line"/>
    </contour>
    <contour>
      <point x="607" y="0" type="line"/>
      <point x="607" y="140" type="line"/>
      <point x="1151" y="140" type="line"/>
      <point x="1151" y="0" type="line"/>
    </contour>
    <contour>
      <point x="607" y="560" type="line"/>
      <point x="607" y="700" type="line"/>
      <point x="1151" y="700" type="line"/>
      <point x="1151" y="560" type="line"/>
    </contour>
    <contour>
      <point x="607" y="290" type="line"/>
      <point x="607" y="425" type="line"/>
      <point x="981" y="425" type="line"/>
      <point x="981" y="290" type="line"/>
    </contour>
    <contour>
      <point x="535" y="700" type="line"/>
      <point x="695" y="700" type="line"/>
      <point x="695" y="0" type="line"/>
      <point x="535" y="0" type="line"/>
    </contour>
  </outline>
</glyph>
<glyph name="Thorn" format="2">
  <advance width="753"/>
  <unicode hex="00DE"/>
  <outline>
    <contour>
      <point x="65" y="685" type="line"/>
      <point x="65" y="700" type="line"/>
      <point x="255" y="700" type="line"/>
      <point x="255" y="685" type="line"/>
    </contour>
    <contour>
      <point x="65" y="0" type="line"/>
      <point x="65" y="15" type="line"/>
      <point x="255" y="15" type="line"/>
      <point x="255" y="0" type="line"/>
    </contour>
    <contour>
      <point x="85" y="700" type="line"/>
      <point x="235" y="700" type="line"/>
      <point x="235" y="0" type="line"/>
      <point x="85" y="0" type="line"/>
    </contour>
    <contour>
      <point x="172" y="431" type="line"/>
      <point x="172" y="571" type="line"/>
      <point x="480" y="571" type="line" smooth="yes"/>
      <point x="605" y="571"/>
      <point x="718" y="525"/>
      <point x="718" y="371" type="curve" smooth="yes"/>
      <point x="718" y="218"/>
      <point x="605" y="171"/>
      <point x="480" y="171" type="curve" smooth="yes"/>
      <point x="172" y="171" type="line"/>
      <point x="172" y="311" type="line"/>
      <point x="470" y="311" type="line" smooth="yes"/>
      <point x="539" y="311"/>
      <point x="563" y="335"/>
      <point x="563" y="371" type="curve" smooth="yes"/>
      <point x="563" y="407"/>
      <point x="539" y="431"/>
      <point x="470" y="431" type="curve" smooth="yes"/>
    </contour>
  </outline>
</glyph>
<glyph name="Hbar" format="2">
  <advance width="835"/>
  <unicode hex="0126"/>
  <outline>
    <contour>
      <point x="5" y="600" type="line"/>
      <point x="20" y="600" type="line"/>
      <point x="20" y="470" type="line"/>
      <point x="5" y="470" type="line"/>
    </contour>
    <contour>
      <point x="815" y="600" type="line"/>
      <point x="830" y="600" type="line"/>
      <point x="830" y="470" type="line"/>
      <point x="815" y="470" type="line"/>
    </contour>
    <contour>
      <point x="5" y="485" type="line"/>
      <point x="5" y="585" type="line"/>
      <point x="830" y="585" type="line"/>
      <point x="830" y="485" type="line"/>
    </contour>
    <component base="H"/>
  </outline>
</glyph>
<glyph name="Lslash" format="2">
  <advance width="720"/>
  <unicode hex="0141"/>
  <outline>
    <contour>
      <point x="385" y="600" type="line"/>
      <point x="400" y="600" type="line"/>
      <point x="400" y="370" type="line"/>
      <point x="385" y="370" type="line"/>
    </contour>
    <contour>
      <point x="0" y="409" type="line"/>
      <point x="15" y="409" type="line"/>
      <point x="15" y="179" type="line"/>
      <point x="0" y="179" type="line"/>
    </contour>
    <contour>
      <point x="0" y="199" type="line"/>
      <point x="0" y="369" type="line"/>
      <point x="400" y="580" type="line"/>
      <point x="400" y="410" type="line"/>
    </contour>
    <component base="L"/>
  </outline>
</glyph>
<glyph name="Eng" format="2">
  <advance width="792"/>
  <unicode hex="014A"/>
  <outline>
    <contour>
      <point x="230" y="479" type="curve"/>
      <point x="166" y="550" type="line"/>
      <point x="251" y="640"/>
      <point x="311" y="720"/>
      <point x="454" y="720" type="curve" smooth="yes"/>
      <point x="608" y="720"/>
      <point x="712" y="649"/>
      <point x="712" y="520" type="curve" smooth="yes"/>
      <point x="712" y="440" type="line"/>
      <point x="557" y="440" type="line"/>
      <point x="557" y="475" type="line" smooth="yes"/>
      <point x="557" y="564"/>
      <point x="501" y="590"/>
      <point x="431" y="590" type="curve" smooth="yes"/>
      <point x="345" y="590"/>
      <point x="274" y="540"/>
    </contour>
    <contour>
      <point x="65" y="0" type="line"/>
      <point x="65" y="15" type="line"/>
      <point x="260" y="15" type="line"/>
      <point x="260" y="0" type="line"/>
    </contour>
    <contour>
      <point x="65" y="685" type="line"/>
      <point x="65" y="700" type="line"/>
      <point x="260" y="700" type="line"/>
      <point x="260" y="685" type="line"/>
    </contour>
    <contour>
      <point x="85" y="700" type="line"/>
      <point x="240" y="700" type="line"/>
      <point x="240" y="0" type="line"/>
      <point x="85" y="0" type="line"/>
    </contour>
    <contour>
      <point x="367" y="181" type="line"/>
      <point x="380" y="173" type="line"/>
      <point x="293" y="32" type="line"/>
      <point x="280" y="40" type="line"/>
    </contour>
    <contour>
      <point x="367" y="167" type="line"/>
      <point x="401" y="140"/>
      <point x="445" y="120"/>
      <point x="491" y="120" type="curve" smooth="yes"/>
      <point x="541" y="120"/>
      <point x="557" y="136"/>
      <point x="557" y="185" type="curve" smooth="yes"/>
      <point x="557" y="440" type="line"/>
      <point x="712" y="440" type="line"/>
      <point x="712" y="140" type="line" smooth="yes"/>
      <point x="712" y="31"/>
      <point x="608" y="-20"/>
      <point x="494" y="-20" type="curve" smooth="yes"/>
      <point x="411" y="-20"/>
      <point x="341" y="20"/>
      <point x="296" y="50" type="curve"/>
    </contour>
  </outline>
</glyph>
<glyph name="OE" format="2">
  <advance width="1271"/>
  <unicode hex="0152"/>
  <outline>
    <contour>
      <point x="405" y="700" type="curve" smooth="yes"/>
      <point x="720" y="700" type="line"/>
      <point x="720" y="560" type="line"/>
      <point x="415" y="560" type="line" smooth="yes"/>
      <point x="287" y="560"/>
      <point x="215" y="493"/>
      <point x="215" y="350" type="curve" smooth="yes"/>
      <point x="215" y="207"/>
      <point x="287" y="140"/>
      <point x="415" y="140" type="curve" smooth="yes"/>
      <point x="720" y="140" type="line"/>
      <point x="720" y="0" type="line"/>
      <point x="405" y="0" type="line" smooth="yes"/>
      <point x="201" y="0"/>
      <point x="55" y="131"/>
      <point x="55" y="350" type="curve" smooth="yes"/>
      <point x="55" y="569"/>
      <point x="201" y="700"/>
    </contour>
    <contour>
      <point x="1211" y="170" type="line"/>
      <point x="1226" y="170" type="line"/>
      <point x="1226" y="-10" type="line"/>
      <point x="1211" y="-10" type="line"/>
    </contour>
    <contour>
      <point x="1211" y="715" type="line"/>
      <point x="1226" y="715" type="line"/>
      <point x="1226" y="535" type="line"/>
      <point x="1211" y="535" type="line"/>
    </contour>
    <contour>
      <point x="1041" y="440" type="line"/>
      <point x="1056" y="440" type="line"/>
      <point x="1056" y="275" type="line"/>
      <point x="1041" y="275" type="line"/>
    </contour>
    <contour>
      <point x="682" y="0" type="line"/>
      <point x="682" y="140" type="line"/>
      <point x="1226" y="140" type="line"/>
      <point x="1226" y="0" type="line"/>
    </contour>
    <contour>
      <point x="682" y="560" type="line"/>
      <point x="682" y="700" type="line"/>
      <point x="1226" y="700" type="line"/>
      <point x="1226" y="560" type="line"/>
    </contour>
    <contour>
      <point x="682" y="290" type="line"/>
      <point x="682" y="425" type="line"/>
      <point x="1056" y="425" type="line"/>
      <point x="1056" y="290" type="line"/>
    </contour>
    <contour>
      <point x="610" y="700" type="line"/>
      <point x="760" y="700" type="line"/>
      <point x="760" y="0" type="line"/>
      <point x="610" y="0" type="line"/>
    </contour>
  </outline>
</glyph>
<glyph name="circumflex" format="2">
  <advance width="424"/>
  <unicode hex="02C6"/>
  <anchor x="212" y="700" name="_top"/>
  <outline>
    <contour>
      <point x="412" y="808" type="line"/>
      <point x="412" y="793" type="line"/>
      <point x="242" y="793" type="line"/>
      <point x="242" y="808" type="line"/>
    </contour>
    <contour>
      <point x="182" y="808" type="line"/>
      <point x="182" y="793" type="line"/>
      <point x="12" y="793" type="line"/>
      <point x="12" y="808" type="line"/>
    </contour>
    <contour>
      <point x="322" y="943" type="line"/>
      <point x="322" y="928" type="line"/>
      <point x="102" y="928" type="line"/>
      <point x="102" y="943" type="line"/>
    </contour>
    <contour>
      <point x="212" y="884" type="line"/>
      <point x="152" y="793" type="line"/>
      <point x="22" y="793" type="line"/>
      <point x="132" y="943" type="line"/>
      <point x="292" y="943" type="line"/>
      <point x="402" y="793" type="line"/>
      <point x="272" y="793" type="line"/>
    </contour>
  </outline>
</glyph>
<glyph name="breve" format="2">
  <advance width="299"/>
  <unicode hex="02D8"/>
  <anchor x="150" y="700" name="_top"/>
  <outline>
    <contour>
      <point x="175" y="919" type="line"/>
      <point x="175" y="934" type="line"/>
      <point x="330" y="934" type="line"/>
      <point x="330" y="919" type="line"/>
    </contour>
    <contour>
      <point x="-30" y="919" type="line"/>
      <point x="-30" y="934" type="line"/>
      <point x="125" y="934" type="line"/>
      <point x="125" y="919" type="line"/>
    </contour>
    <contour>
      <point x="105" y="919" type="line"/>
      <point x="105" y="890"/>
      <point x="116" y="880"/>
      <point x="150" y="880" type="curve" smooth="yes"/>
      <point x="184" y="880"/>
      <point x="195" y="890"/>
      <point x="195" y="919" type="curve"/>
      <point x="310" y="919" type="line"/>
      <point x="310" y="838"/>
      <point x="250" y="770"/>
      <point x="150" y="770" type="curve" smooth="yes"/>
      <point x="50" y="770"/>
      <point x="-10" y="838"/>
      <point x="-10" y="919" type="curve"/>
    </contour>
  </outline>
</glyph>
<glyph name="ring" format="2">
  <advance width="319"/>
  <unicode hex="02DA"/>
  <anchor x="160" y="700" name="_top"/>
  <outline>
    <contour>
      <point x="40" y="852" type="curve" smooth="yes"/>
      <point x="40" y="918"/>
      <point x="94" y="972"/>
      <point x="160" y="972" type="curve" smooth="yes"/>
      <point x="226" y="972"/>
      <point x="280" y="918"/>
      <point x="280" y="852" type="curve" smooth="yes"/>
      <point x="280" y="786"/>
      <point x="226" y="732"/>
      <point x="160" y="732" type="curve" smooth="yes"/>
      <point x="94" y="732"/>
      <point x="40" y="786"/>
    </contour>
    <contour>
      <point x="114" y="852" type="curve" smooth="yes"/>
      <point x="114" y="825"/>
      <point x="133" y="807"/>
      <point x="160" y="807" type="curve" smooth="yes"/>
      <point x="187" y="807"/>
      <point x="205" y="825"/>
      <point x="205" y="852" type="curve" smooth="yes"/>
      <point x="205" y="879"/>
      <point x="187" y="897"/>
      <point x="160" y="897" type="curve" smooth="yes"/>
      <point x="133" y="897"/>
      <point x="114" y="879"/>
    </contour>
  </outline>
</glyph>
<glyph name="tilde" format="2">
  <advance width="447"/>
  <unicode hex="02DC"/>
  <anchor x="234" y="750" name="_top"/>
  <outline>
    <contour>
      <point x="291" y="972" type="line"/>
      <point x="291" y="987" type="line"/>
      <point x="455" y="987" type="line"/>
      <point x="455" y="972" type="line"/>
    </contour>
    <contour>
      <point x="-7" y="830" type="line"/>
      <point x="-7" y="845" type="line"/>
      <point x="157" y="845" type="line"/>
      <point x="157" y="830" type="line"/>
    </contour>
    <contour>
      <point x="140" y="836" type="curve"/>
      <point x="16" y="841" type="line"/>
      <point x="14" y="848"/>
      <point x="13" y="866"/>
      <point x="13" y="875" type="curve" smooth="yes"/>
      <point x="13" y="906"/>
      <point x="18.8477" y="941.115"/>
      <point x="37" y="965" type="curve" smooth="yes"/>
      <point x="56" y="990"/>
      <point x="86" y="1007"/>
      <point x="127" y="1007" type="curve" smooth="yes"/>
      <point x="174" y="1007"/>
      <point x="197.36" y="988.512"/>
      <point x="222" y="971" type="curve" smooth="yes"/>
      <point x="252.425" y="949.377"/>
      <point x="267" y="922"/>
      <point x="292" y="922" type="curve" smooth="yes"/>
      <point x="310" y="922"/>
      <point x="315" y="932"/>
      <point x="315" y="951" type="curve" smooth="yes"/>
      <point x="315" y="959"/>
      <point x="312" y="973"/>
      <point x="308" y="983" type="curve"/>
      <point x="434" y="978" type="line"/>
      <point x="436" y="970"/>
      <point x="438" y="950"/>
      <point x="438" y="940" type="curve" smooth="yes"/>
      <point x="438" y="900"/>
      <point x="433.16" y="871.881"/>
      <point x="416" y="849" type="curve" smooth="yes"/>
      <point x="398" y="825"/>
      <point x="376" y="812"/>
      <point x="330" y="812" type="curve" smooth="yes"/>
      <point x="286" y="812"/>
      <point x="259.511" y="823.541"/>
      <point x="229" y="855" type="curve" smooth="yes"/>
      <point x="210.06" y="874.528"/>
      <point x="193" y="897"/>
      <point x="169" y="897" type="curve" smooth="yes"/>
      <point x="148" y="897"/>
      <point x="131" y="888"/>
      <point x="131" y="863" type="curve" smooth="yes"/>
      <point x="131" y="856"/>
      <point x="134" y="844"/>
    </contour>
  </outline>
</glyph>
<glyph name="uni0304" format="2">
  <unicode hex="0304"/>
  <anchor x="-209" y="700" name="_top"/>
  <outline>
    <contour>
      <point x="-329" y="915" type="line"/>
      <point x="-314" y="915" type="line"/>
      <point x="-314" y="765" type="line"/>
      <point x="-329" y="765" type="line"/>
    </contour>
    <contour>
      <point x="-104" y="915" type="line"/>
      <point x="-89" y="915" type="line"/>
      <point x="-89" y="765" type="line"/>
      <point x="-104" y="765" type="line"/>
    </contour>
    <contour>
      <point x="-329" y="780" type="line"/>
      <point x="-329" y="900" type="line"/>
      <point x="-89" y="900" type="line"/>
      <point x="-89" y="780" type="line"/>
    </contour>
  </outline>
</glyph>
<glyph name="uni0307" format="2">
  <unicode hex="0307"/>
  <outline>
    <contour>
      <point x="-288" y="574" type="curve" smooth="yes"/>
      <point x="-288" y="632"/>
      <point x="-239" y="684"/>
      <point x="-178" y="684" type="curve" smooth="yes"/>
      <point x="-117" y="684"/>
      <point x="-68" y="632"/>
      <point x="-68" y="574" type="curve" smooth="yes"/>
      <point x="-68" y="516"/>
      <point x="-117" y="464"/>
      <point x="-178" y="464" type="curve" smooth="yes"/>
      <point x="-239" y="464"/>
      <point x="-288" y="516"/>
    </contour>
  </outline>
</glyph>
<glyph name="uni1E9E" format="2">
  <advance width="861"/>
  <unicode hex="1E9E"/>
  <outline>
    <contour>
      <point x="783" y="557" type="line"/>
      <point x="800" y="572" type="line"/>
      <point x="810" y="560" type="line"/>
    </contour>
    <contour>
      <point x="339" y="196" type="line"/>
      <point x="353" y="189" type="line"/>
      <point x="293" y="33" type="line"/>
      <point x="279" y="40" type="line"/>
    </contour>
    <contour>
      <point x="55" y="0" type="line"/>
      <point x="55" y="15" type="line"/>
      <point x="250" y="15" type="line"/>
      <point x="250" y="0" type="line"/>
    </contour>
    <contour>
      <point x="545" y="-12" type="curve" smooth="yes"/>
      <point x="439" y="-12"/>
      <point x="351" y="21"/>
      <point x="295" y="56" type="curve"/>
      <point x="339" y="177" type="line"/>
      <point x="389" y="148"/>
      <point x="481" y="114"/>
      <point x="541" y="114" type="curve" smooth="yes"/>
      <point x="621" y="114"/>
      <point x="667" y="132"/>
      <point x="667" y="172" type="curve" smooth="yes"/>
      <point x="667" y="256"/>
      <point x="453" y="243"/>
      <point x="453" y="369" type="curve" smooth="yes"/>
      <point x="453" y="455"/>
      <point x="569" y="502"/>
      <point x="599" y="531" type="curve"/>
      <point x="569" y="549"/>
      <point x="511" y="581"/>
      <point x="422" y="581" type="curve" smooth="yes"/>
      <point x="302" y="581"/>
      <point x="227.389" y="546.997"/>
      <point x="228" y="419" type="curve" smooth="yes"/>
      <point x="230" y="0" type="line"/>
      <point x="75" y="0" type="line"/>
      <point x="75" y="430" type="line" smooth="yes"/>
      <point x="75" y="649"/>
      <point x="241" y="712"/>
      <point x="431" y="712" type="curve" smooth="yes"/>
      <point x="598" y="712"/>
      <point x="721" y="625"/>
      <point x="783" y="557" type="curve"/>
      <point x="810" y="560" type="line"/>
      <point x="760" y="514"/>
      <point x="615" y="436"/>
      <point x="615" y="384" type="curve" smooth="yes"/>
      <point x="615" y="312"/>
      <point x="831" y="335"/>
      <point x="831" y="179" type="curve" smooth="yes"/>
      <point x="831" y="65"/>
      <point x="713" y="-12"/>
    </contour>
  </outline>
</glyph>
<glyph name="uni2011" format="2">
  <advance width="320"/>
  <unicode hex="2011"/>
  <outline>
    <contour>
      <point x="20" y="370" type="line"/>
      <point x="35" y="370" type="line"/>
      <point x="35" y="200" type="line"/>
      <point x="20" y="200" type="line"/>
    </contour>
    <contour>
      <point x="285" y="370" type="line"/>
      <point x="300" y="370" type="line"/>
      <point x="300" y="200" type="line"/>
      <point x="285" y="200" type="line"/>
    </contour>
    <contour>
      <point x="20" y="215" type="line"/>
      <point x="20" y="355" type="line"/>
      <point x="300" y="355" type="line"/>
      <point x="300" y="215" type="line"/>
    </contour>
  </outline>
</glyph>
<glyph name="figuredash" format="2">
  <advance width="446"/>
  <unicode hex="2012"/>
  <outline>
    <contour>
      <point x="20" y="370" type="line"/>
      <point x="35" y="370" type="line"/>
      <point x="35" y="200" type="line"/>
      <point x="20" y="200" type="line"/>
    </contour>
    <contour>
      <point x="411" y="370" type="line"/>
      <point x="426" y="370" type="line"/>
      <point x="426" y="200" type="line"/>
      <point x="411" y="200" type="line"/>
    </contour>
    <contour>
      <point x="20" y="215" type="line"/>
      <point x="20" y="355" type="line"/>
      <point x="426" y="355" type="line"/>
      <point x="426" y="215" type="line"/>
    </contour>
  </outline>
</glyph>
<glyph name="endash" format="2">
  <advance width="531"/>
  <unicode hex="2013"/>
  <outline>
    <contour>
      <point x="20" y="370" type="line"/>
      <point x="35" y="370" type="line"/>
      <point x="35" y="200" type="line"/>
      <point x="20" y="200" type="line"/>
    </contour>
    <contour>
      <point x="496" y="370" type="line"/>
      <point x="511" y="370" type="line"/>
      <point x="511" y="200" type="line"/>
      <point x="496" y="200" type="line"/>
    </contour>
    <contour>
      <point x="20" y="215" type="line"/>
      <point x="20" y="355" type="line"/>
      <point x="511" y="355" type="line"/>
      <point x="511" y="215" type="line"/>
    </contour>
  </outline>
</glyph>
<glyph name="emdash" format="2">
  <advance width="815"/>
  <unicode hex="2014"/>
  <outline>
    <contour>
      <point x="20" y="370" type="line"/>
      <point x="35" y="370" type="line"/>
      <point x="35" y="200" type="line"/>
      <point x="20" y="200" type="line"/>
    </contour>
    <contour>
      <point x="780" y="370" type="line"/>
      <point x="795" y="370" type="line"/>
      <point x="795" y="200" type="line"/>
      <point x="780" y="200" type="line"/>
    </contour>
    <contour>
      <point x="20" y="215" type="line"/>
      <point x="20" y="355" type="line"/>
      <point x="795" y="355" type="line"/>
      <point x="795" y="215" type="line"/>
    </contour>
  </outline>
</glyph>
<glyph name="uni2015" format="2">
  <advance width="901"/>
  <unicode hex="2015"/>
  <outline>
    <contour>
      <point x="20" y="370" type="line"/>
      <point x="36" y="370" type="line"/>
      <point x="36" y="200" type="line"/>
      <point x="20" y="200" type="line"/>
    </contour>
    <contour>
      <point x="866" y="370" type="line"/>
      <point x="881" y="370" type="line"/>
      <point x="881" y="200" type="line"/>
      <point x="866" y="200" type="line"/>
    </contour>
    <contour>
      <point x="20" y="215" type="line"/>
      <point x="20" y="355" type="line"/>
      <point x="881" y="355" type="line"/>
      <point x="881" y="215" type="line"/>
    </contour>
  </outline>
</glyph>
<glyph name="dagger" format="2">
  <advance width="594"/>
  <unicode hex="2020"/>
  <outline>
    <contour>
      <point x="205" y="-150" type="line"/>
      <point x="205" y="-135" type="line"/>
      <point x="390" y="-135" type="line"/>
      <point x="390" y="-150" type="line"/>
    </contour>
    <contour>
      <point x="205" y="685" type="line"/>
      <point x="205" y="700" type="line"/>
      <point x="390" y="700" type="line"/>
      <point x="390" y="685" type="line"/>
    </contour>
    <contour>
      <point x="90" y="560" type="line"/>
      <point x="105" y="560" type="line"/>
      <point x="105" y="390" type="line"/>
      <point x="90" y="390" type="line"/>
    </contour>
    <contour>
      <point x="490" y="560" type="line"/>
      <point x="505" y="560" type="line"/>
      <point x="505" y="390" type="line"/>
      <point x="490" y="390" type="line"/>
    </contour>
    <contour>
      <point x="90" y="540" type="line"/>
      <point x="505" y="540" type="line"/>
      <point x="505" y="410" type="line"/>
      <point x="90" y="410" type="line"/>
    </contour>
    <contour>
      <point x="225" y="700" type="line"/>
      <point x="370" y="700" type="line"/>
      <point x="370" y="-150" type="line"/>
      <point x="225" y="-150" type="line"/>
    </contour>
  </outline>
</glyph>
<glyph name="daggerdbl" format="2">
  <advance width="594"/>
  <unicode hex="2021"/>
  <outline>
    <contour>
      <point x="205" y="-150" type="line"/>
      <point x="205" y="-135" type="line"/>
      <point x="390" y="-135" type="line"/>
      <point x="390" y="-150" type="line"/>
    </contour>
    <contour>
      <point x="205" y="685" type="line"/>
      <point x="205" y="700" type="line"/>
      <point x="390" y="700" type="line"/>
      <point x="390" y="685" type="line"/>
    </contour>
    <contour>
      <point x="90" y="190" type="line"/>
      <point x="105" y="190" type="line"/>
      <point x="105" y="20" type="line"/>
      <point x="90" y="20" type="line"/>
    </contour>
    <contour>
      <point x="490" y="190" type="line"/>
      <point x="505" y="190" type="line"/>
      <point x="505" y="20" type="line"/>
      <point x="490" y="20" type="line"/>
    </contour>
    <contour>
      <point x="90" y="560" type="line"/>
      <point x="105" y="560" type="line"/>
      <point x="105" y="390" type="line"/>
      <point x="90" y="390" type="line"/>
    </contour>
    <contour>
      <point x="490" y="560" type="line"/>
      <point x="505" y="560" type="line"/>
      <point x="505" y="390" type="line"/>
      <point x="490" y="390" type="line"/>
    </contour>
    <contour>
      <point x="90" y="175" type="line"/>
      <point x="505" y="175" type="line"/>
      <point x="505" y="40" type="line"/>
      <point x="90" y="40" type="line"/>
    </contour>
    <contour>
      <point x="90" y="540" type="line"/>
      <point x="505" y="540" type="line"/>
      <point x="505" y="405" type="line"/>
      <point x="90" y="405" type="line"/>
    </contour>
    <contour>
      <point x="225" y="700" type="line"/>
      <point x="370" y="700" type="line"/>
      <point x="370" y="-150" type="line"/>
      <point x="225" y="-150" type="line"/>
    </contour>
  </outline>
</glyph>
<glyph name="bullet" format="2">
  <advance width="370"/>
  <unicode hex="2022"/>
  <outline>
    <contour>
      <point x="75" y="426" type="curve" smooth="yes"/>
      <point x="75" y="484"/>
      <point x="124" y="536"/>
      <point x="185" y="536" type="curve" smooth="yes"/>
      <point x="246" y="536"/>
      <point x="295" y="484"/>
      <point x="295" y="426" type="curve" smooth="yes"/>
      <point x="295" y="368"/>
      <point x="246" y="316"/>
      <point x="185" y="316" type="curve" smooth="yes"/>
      <point x="124" y="316"/>
      <point x="75" y="368"/>
    </contour>
  </outline>
</glyph>
<glyph name="guilsinglleft" format="2">
  <advance width="364"/>
  <unicode hex="2039"/>
  <outline>
    <contour>
      <point x="213" y="4" type="line"/>
      <point x="321" y="95" type="line"/>
      <point x="329" y="86" type="line"/>
      <point x="221" y="-5" type="line"/>
    </contour>
    <contour>
      <point x="213" y="506" type="line"/>
      <point x="221" y="515" type="line"/>
      <point x="329" y="424" type="line"/>
      <point x="321" y="415" type="line"/>
    </contour>
    <contour>
      <point x="181" y="259" type="line"/>
      <point x="311" y="85" type="line"/>
      <point x="223" y="12" type="line"/>
      <point x="38" y="255" type="line"/>
      <point x="223" y="498" type="line"/>
      <point x="311" y="425" type="line"/>
    </contour>
  </outline>
</glyph>
<glyph name="guilsinglright" format="2">
  <advance width="365"/>
  <unicode hex="203A"/>
  <outline>
    <contour>
      <point x="151" y="506" type="line"/>
      <point x="43" y="415" type="line"/>
      <point x="35" y="424" type="line"/>
      <point x="143" y="515" type="line"/>
    </contour>
    <contour>
      <point x="151" y="4" type="line"/>
      <point x="143" y="-5" type="line"/>
      <point x="35" y="86" type="line"/>
      <point x="43" y="95" type="line"/>
    </contour>
    <contour>
      <point x="184" y="251" type="line"/>
      <point x="54" y="425" type="line"/>
      <point x="141" y="498" type="line"/>
      <point x="327" y="255" type="line"/>
      <point x="141" y="12" type="line"/>
      <point x="54" y="85" type="line"/>
    </contour>
  </outline>
</glyph>
